<mxfile host="app.diagrams.net" modified="2021-06-03T21:36:57.390Z" agent="5.0 (Windows NT 10.0; Win64; x64) AppleWebKit/537.36 (KHTML, like Gecko) Chrome/91.0.4472.77 Safari/537.36" etag="D8MAzM3QpBKNvgm0QIHA" version="14.7.4" type="github" pages="2">
  <diagram id="b2UX4GlEIh6qMCerJ4nt" name="OTTERec / tomoDLS">
    <mxGraphModel dx="1874" dy="1932" grid="1" gridSize="10" guides="1" tooltips="1" connect="1" arrows="1" fold="1" page="1" pageScale="1" pageWidth="850" pageHeight="1100" math="1" shadow="0">
      <root>
        <mxCell id="0" />
        <mxCell id="1" parent="0" />
        <mxCell id="DhbHKgyXgL_2z6RSFWDE-4" style="edgeStyle=orthogonalEdgeStyle;orthogonalLoop=1;jettySize=auto;html=1;exitX=0.5;exitY=1;exitDx=0;exitDy=0;exitPerimeter=0;entryX=0.5;entryY=0;entryDx=0;entryDy=0;fontSize=13;" parent="1" source="DhbHKgyXgL_2z6RSFWDE-1" edge="1">
          <mxGeometry relative="1" as="geometry">
            <mxPoint x="450" y="-970" as="targetPoint" />
          </mxGeometry>
        </mxCell>
        <mxCell id="DhbHKgyXgL_2z6RSFWDE-1" value="Start OTTERec" style="strokeWidth=2;html=1;shape=mxgraph.flowchart.terminator;whiteSpace=wrap;fillColor=#6a00ff;strokeColor=#3700CC;fontColor=#ffffff;fontSize=13;fontStyle=1" parent="1" vertex="1">
          <mxGeometry x="400" y="-1060" width="100" height="60" as="geometry" />
        </mxCell>
        <mxCell id="DhbHKgyXgL_2z6RSFWDE-5" value="Display tasks" style="strokeWidth=2;html=1;shape=mxgraph.flowchart.display;whiteSpace=wrap;fontSize=13;" parent="1" vertex="1">
          <mxGeometry x="570" y="-980" width="100" height="60" as="geometry" />
        </mxCell>
        <mxCell id="DhbHKgyXgL_2z6RSFWDE-9" style="edgeStyle=orthogonalEdgeStyle;orthogonalLoop=1;jettySize=auto;html=1;fontSize=13;" parent="1" source="DhbHKgyXgL_2z6RSFWDE-7" target="DhbHKgyXgL_2z6RSFWDE-13" edge="1">
          <mxGeometry relative="1" as="geometry">
            <mxPoint x="300" y="-830" as="targetPoint" />
          </mxGeometry>
        </mxCell>
        <mxCell id="DhbHKgyXgL_2z6RSFWDE-10" value="Yes" style="edgeLabel;html=1;align=center;verticalAlign=middle;resizable=0;points=[];fontSize=13;" parent="DhbHKgyXgL_2z6RSFWDE-9" vertex="1" connectable="0">
          <mxGeometry x="-0.2112" y="1" relative="1" as="geometry">
            <mxPoint as="offset" />
          </mxGeometry>
        </mxCell>
        <mxCell id="DhbHKgyXgL_2z6RSFWDE-22" style="edgeStyle=orthogonalEdgeStyle;orthogonalLoop=1;jettySize=auto;html=1;exitX=0.5;exitY=1;exitDx=0;exitDy=0;exitPerimeter=0;fontSize=13;" parent="1" source="DhbHKgyXgL_2z6RSFWDE-7" target="DhbHKgyXgL_2z6RSFWDE-23" edge="1">
          <mxGeometry relative="1" as="geometry">
            <mxPoint x="470" y="-800" as="targetPoint" />
          </mxGeometry>
        </mxCell>
        <mxCell id="DhbHKgyXgL_2z6RSFWDE-24" value="No" style="edgeLabel;html=1;align=center;verticalAlign=middle;resizable=0;points=[];fontSize=13;" parent="DhbHKgyXgL_2z6RSFWDE-22" vertex="1" connectable="0">
          <mxGeometry x="0.2315" y="-1" relative="1" as="geometry">
            <mxPoint x="1" y="-10" as="offset" />
          </mxGeometry>
        </mxCell>
        <mxCell id="DhbHKgyXgL_2z6RSFWDE-7" value="OTF processing?" style="strokeWidth=2;html=1;shape=mxgraph.flowchart.decision;whiteSpace=wrap;fontSize=13;" parent="1" vertex="1">
          <mxGeometry x="370" y="-910" width="160" height="70" as="geometry" />
        </mxCell>
        <mxCell id="DhbHKgyXgL_2z6RSFWDE-13" value="OTF module which doesn&#39;t work..." style="whiteSpace=wrap;html=1;absoluteArcSize=1;arcSize=14;strokeWidth=2;fillColor=#e51400;strokeColor=#B20000;fontColor=#ffffff;fontSize=13;" parent="1" vertex="1">
          <mxGeometry x="60" y="-830" width="120" height="50" as="geometry" />
        </mxCell>
        <mxCell id="DhbHKgyXgL_2z6RSFWDE-29" style="edgeStyle=orthogonalEdgeStyle;orthogonalLoop=1;jettySize=auto;html=1;fontSize=13;" parent="1" source="DhbHKgyXgL_2z6RSFWDE-23" target="DhbHKgyXgL_2z6RSFWDE-28" edge="1">
          <mxGeometry relative="1" as="geometry" />
        </mxCell>
        <mxCell id="DhbHKgyXgL_2z6RSFWDE-30" value="No" style="edgeLabel;html=1;align=center;verticalAlign=middle;resizable=0;points=[];fontSize=13;" parent="DhbHKgyXgL_2z6RSFWDE-29" vertex="1" connectable="0">
          <mxGeometry x="0.2195" y="2" relative="1" as="geometry">
            <mxPoint x="-4" y="2" as="offset" />
          </mxGeometry>
        </mxCell>
        <mxCell id="DhbHKgyXgL_2z6RSFWDE-47" value="Yes" style="edgeStyle=orthogonalEdgeStyle;rounded=0;orthogonalLoop=1;jettySize=auto;html=1;exitX=0.5;exitY=1;exitDx=0;exitDy=0;exitPerimeter=0;fontSize=13;" parent="1" source="DhbHKgyXgL_2z6RSFWDE-23" target="DhbHKgyXgL_2z6RSFWDE-45" edge="1">
          <mxGeometry x="-0.2" y="-20" relative="1" as="geometry">
            <mxPoint as="offset" />
          </mxGeometry>
        </mxCell>
        <mxCell id="DhbHKgyXgL_2z6RSFWDE-23" value="&lt;b style=&quot;font-size: 13px;&quot;&gt;MC2 / Stacks &lt;/b&gt;folders exist?" style="strokeWidth=2;html=1;shape=mxgraph.flowchart.decision;whiteSpace=wrap;fontSize=13;" parent="1" vertex="1">
          <mxGeometry x="330" y="-800" width="240" height="50" as="geometry" />
        </mxCell>
        <mxCell id="DhbHKgyXgL_2z6RSFWDE-63" style="edgeStyle=orthogonalEdgeStyle;rounded=0;orthogonalLoop=1;jettySize=auto;html=1;exitX=0.5;exitY=1;exitDx=0;exitDy=0;fontSize=13;" parent="1" source="DhbHKgyXgL_2z6RSFWDE-28" target="DhbHKgyXgL_2z6RSFWDE-45" edge="1">
          <mxGeometry relative="1" as="geometry">
            <Array as="points">
              <mxPoint x="690" y="-730" />
              <mxPoint x="450" y="-730" />
            </Array>
          </mxGeometry>
        </mxCell>
        <mxCell id="DhbHKgyXgL_2z6RSFWDE-28" value="Create folders" style="whiteSpace=wrap;html=1;absoluteArcSize=1;arcSize=14;strokeWidth=2;fontSize=13;rounded=1;" parent="1" vertex="1">
          <mxGeometry x="640" y="-790" width="100" height="30" as="geometry" />
        </mxCell>
        <mxCell id="DhbHKgyXgL_2z6RSFWDE-38" style="edgeStyle=orthogonalEdgeStyle;rounded=0;orthogonalLoop=1;jettySize=auto;html=1;fontSize=13;" parent="1" source="DhbHKgyXgL_2z6RSFWDE-35" target="DhbHKgyXgL_2z6RSFWDE-37" edge="1">
          <mxGeometry relative="1" as="geometry">
            <Array as="points">
              <mxPoint x="630" y="-592" />
              <mxPoint x="630" y="-592" />
            </Array>
          </mxGeometry>
        </mxCell>
        <mxCell id="DhbHKgyXgL_2z6RSFWDE-39" value="Yes" style="edgeLabel;html=1;align=center;verticalAlign=middle;resizable=0;points=[];fontSize=13;" parent="DhbHKgyXgL_2z6RSFWDE-38" vertex="1" connectable="0">
          <mxGeometry x="0.2719" y="-1" relative="1" as="geometry">
            <mxPoint x="-15" y="-1" as="offset" />
          </mxGeometry>
        </mxCell>
        <mxCell id="DhbHKgyXgL_2z6RSFWDE-65" style="edgeStyle=orthogonalEdgeStyle;rounded=0;orthogonalLoop=1;jettySize=auto;html=1;exitX=0.5;exitY=1;exitDx=0;exitDy=0;fontSize=13;" parent="1" source="DhbHKgyXgL_2z6RSFWDE-35" target="T4oPgjfY7F1XBtKqb_RU-12" edge="1">
          <mxGeometry relative="1" as="geometry">
            <mxPoint x="460" y="-490" as="targetPoint" />
          </mxGeometry>
        </mxCell>
        <mxCell id="T4oPgjfY7F1XBtKqb_RU-1" value="No" style="edgeLabel;html=1;align=center;verticalAlign=middle;resizable=0;points=[];fontSize=13;" parent="DhbHKgyXgL_2z6RSFWDE-65" vertex="1" connectable="0">
          <mxGeometry x="-0.7167" relative="1" as="geometry">
            <mxPoint y="14" as="offset" />
          </mxGeometry>
        </mxCell>
        <mxCell id="DhbHKgyXgL_2z6RSFWDE-35" value="Process record exists?" style="rhombus;whiteSpace=wrap;html=1;strokeColor=#6c8ebf;strokeWidth=2;fillColor=#dae8fc;fontSize=13;" parent="1" vertex="1">
          <mxGeometry x="350" y="-625" width="200" height="65" as="geometry" />
        </mxCell>
        <mxCell id="DhbHKgyXgL_2z6RSFWDE-37" value="End OTTERec" style="strokeWidth=2;html=1;shape=mxgraph.flowchart.terminator;whiteSpace=wrap;fillColor=#6a00ff;strokeColor=#3700CC;fontColor=#ffffff;fontSize=13;fontStyle=1" parent="1" vertex="1">
          <mxGeometry x="710" y="-622.5" width="100" height="60" as="geometry" />
        </mxCell>
        <mxCell id="DhbHKgyXgL_2z6RSFWDE-49" style="edgeStyle=orthogonalEdgeStyle;rounded=0;orthogonalLoop=1;jettySize=auto;html=1;exitX=0.5;exitY=1;exitDx=0;exitDy=0;fontSize=13;" parent="1" source="DhbHKgyXgL_2z6RSFWDE-45" target="DhbHKgyXgL_2z6RSFWDE-35" edge="1">
          <mxGeometry relative="1" as="geometry" />
        </mxCell>
        <mxCell id="DhbHKgyXgL_2z6RSFWDE-51" style="edgeStyle=orthogonalEdgeStyle;rounded=0;orthogonalLoop=1;jettySize=auto;html=1;exitX=0;exitY=0.5;exitDx=0;exitDy=0;dashed=1;fontSize=13;" parent="1" source="DhbHKgyXgL_2z6RSFWDE-45" target="DhbHKgyXgL_2z6RSFWDE-50" edge="1">
          <mxGeometry relative="1" as="geometry">
            <mxPoint x="260" y="-675" as="targetPoint" />
          </mxGeometry>
        </mxCell>
        <mxCell id="DhbHKgyXgL_2z6RSFWDE-45" value="&#xa;&#xa;&lt;span style=&quot;color: rgb(0, 0, 0); font-family: helvetica; font-size: 13px; font-style: normal; font-weight: 400; letter-spacing: normal; text-align: center; text-indent: 0px; text-transform: none; word-spacing: 0px; background-color: rgb(248, 249, 250); display: inline; float: none;&quot;&gt;Collect &amp;amp; clean raw files (TIFF/mrc)&lt;/span&gt;&#xa;&#xa;" style="shape=parallelogram;html=1;strokeWidth=2;perimeter=parallelogramPerimeter;whiteSpace=wrap;rounded=1;arcSize=12;size=0.23;fillColor=#dae8fc;strokeColor=#6c8ebf;fontSize=13;" parent="1" vertex="1">
          <mxGeometry x="300" y="-700" width="300" height="50" as="geometry" />
        </mxCell>
        <mxCell id="T4oPgjfY7F1XBtKqb_RU-2" style="edgeStyle=orthogonalEdgeStyle;rounded=0;orthogonalLoop=1;jettySize=auto;html=1;exitX=0.5;exitY=1;exitDx=0;exitDy=0;exitPerimeter=0;entryX=0;entryY=0.5;entryDx=0;entryDy=0;fontSize=13;dashed=1;" parent="1" source="DhbHKgyXgL_2z6RSFWDE-50" target="DhbHKgyXgL_2z6RSFWDE-70" edge="1">
          <mxGeometry relative="1" as="geometry" />
        </mxCell>
        <mxCell id="T4oPgjfY7F1XBtKqb_RU-9" style="edgeStyle=orthogonalEdgeStyle;rounded=0;orthogonalLoop=1;jettySize=auto;html=1;exitX=0.5;exitY=1;exitDx=0;exitDy=0;exitPerimeter=0;entryX=0;entryY=0.5;entryDx=0;entryDy=0;fontSize=13;dashed=1;" parent="1" source="DhbHKgyXgL_2z6RSFWDE-50" target="T4oPgjfY7F1XBtKqb_RU-6" edge="1">
          <mxGeometry relative="1" as="geometry" />
        </mxCell>
        <mxCell id="ecBJDaTKs6xn7I5bQCrs-10" style="edgeStyle=orthogonalEdgeStyle;rounded=0;orthogonalLoop=1;jettySize=auto;html=1;entryX=0;entryY=0.5;entryDx=0;entryDy=0;endArrow=classic;endFill=1;dashed=1;" parent="1" source="DhbHKgyXgL_2z6RSFWDE-50" target="ecBJDaTKs6xn7I5bQCrs-2" edge="1">
          <mxGeometry relative="1" as="geometry">
            <Array as="points">
              <mxPoint x="200" y="120" />
            </Array>
          </mxGeometry>
        </mxCell>
        <mxCell id="DhbHKgyXgL_2z6RSFWDE-50" value="Metadata" style="strokeWidth=2;html=1;shape=mxgraph.flowchart.direct_data;whiteSpace=wrap;fontSize=13;" parent="1" vertex="1">
          <mxGeometry x="150" y="-705" width="100" height="60" as="geometry" />
        </mxCell>
        <mxCell id="DhbHKgyXgL_2z6RSFWDE-56" style="edgeStyle=orthogonalEdgeStyle;rounded=0;orthogonalLoop=1;jettySize=auto;html=1;exitX=1;exitY=0.5;exitDx=0;exitDy=0;fontSize=13;" parent="1" source="DhbHKgyXgL_2z6RSFWDE-53" target="DhbHKgyXgL_2z6RSFWDE-5" edge="1">
          <mxGeometry relative="1" as="geometry" />
        </mxCell>
        <mxCell id="DhbHKgyXgL_2z6RSFWDE-57" style="edgeStyle=orthogonalEdgeStyle;rounded=0;orthogonalLoop=1;jettySize=auto;html=1;exitX=0.5;exitY=1;exitDx=0;exitDy=0;fontSize=13;" parent="1" source="DhbHKgyXgL_2z6RSFWDE-53" target="DhbHKgyXgL_2z6RSFWDE-7" edge="1">
          <mxGeometry relative="1" as="geometry" />
        </mxCell>
        <mxCell id="DhbHKgyXgL_2z6RSFWDE-59" value="" style="edgeStyle=orthogonalEdgeStyle;rounded=0;orthogonalLoop=1;jettySize=auto;html=1;fontSize=13;" parent="1" source="DhbHKgyXgL_2z6RSFWDE-53" target="DhbHKgyXgL_2z6RSFWDE-61" edge="1">
          <mxGeometry relative="1" as="geometry">
            <mxPoint x="310" y="-950" as="targetPoint" />
          </mxGeometry>
        </mxCell>
        <mxCell id="DhbHKgyXgL_2z6RSFWDE-53" value="Read YAML" style="verticalLabelPosition=middle;verticalAlign=middle;html=1;shape=trapezoid;perimeter=trapezoidPerimeter;whiteSpace=wrap;size=0.23;arcSize=10;flipV=1;labelPosition=center;align=center;fontSize=13;" parent="1" vertex="1">
          <mxGeometry x="390" y="-970" width="120" height="40" as="geometry" />
        </mxCell>
        <mxCell id="DhbHKgyXgL_2z6RSFWDE-61" value="Start logger" style="rounded=1;whiteSpace=wrap;html=1;absoluteArcSize=1;arcSize=14;strokeWidth=2;fontSize=13;" parent="1" vertex="1">
          <mxGeometry x="210" y="-980" width="100" height="60" as="geometry" />
        </mxCell>
        <mxCell id="DhbHKgyXgL_2z6RSFWDE-71" style="edgeStyle=orthogonalEdgeStyle;rounded=0;orthogonalLoop=1;jettySize=auto;html=1;exitX=0.5;exitY=1;exitDx=0;exitDy=0;fontSize=13;" parent="1" source="DhbHKgyXgL_2z6RSFWDE-68" target="DhbHKgyXgL_2z6RSFWDE-70" edge="1">
          <mxGeometry relative="1" as="geometry" />
        </mxCell>
        <mxCell id="DhbHKgyXgL_2z6RSFWDE-68" value="Assign subprocess chunks to GPUs &lt;br&gt;(# images per GPU)&amp;nbsp;" style="rounded=1;whiteSpace=wrap;html=1;absoluteArcSize=1;arcSize=14;strokeWidth=2;fontSize=13;fillColor=#d5e8d4;strokeColor=#82b366;" parent="1" vertex="1">
          <mxGeometry x="310" y="-420" width="280" height="40" as="geometry" />
        </mxCell>
        <mxCell id="DhbHKgyXgL_2z6RSFWDE-73" style="edgeStyle=orthogonalEdgeStyle;rounded=0;orthogonalLoop=1;jettySize=auto;html=1;exitX=0.5;exitY=1;exitDx=0;exitDy=0;fontSize=13;" parent="1" source="DhbHKgyXgL_2z6RSFWDE-70" target="DhbHKgyXgL_2z6RSFWDE-72" edge="1">
          <mxGeometry relative="1" as="geometry" />
        </mxCell>
        <mxCell id="DhbHKgyXgL_2z6RSFWDE-70" value="Run&lt;b&gt;&amp;nbsp;MotionCor2&lt;/b&gt;&amp;nbsp;on chunks" style="rounded=1;whiteSpace=wrap;html=1;absoluteArcSize=1;arcSize=14;strokeWidth=2;fontSize=13;fillColor=#d5e8d4;strokeColor=#82b366;" parent="1" vertex="1">
          <mxGeometry x="360" y="-350" width="180" height="40" as="geometry" />
        </mxCell>
        <mxCell id="DhbHKgyXgL_2z6RSFWDE-77" style="edgeStyle=orthogonalEdgeStyle;rounded=0;orthogonalLoop=1;jettySize=auto;html=1;exitX=1;exitY=0.5;exitDx=0;exitDy=0;exitPerimeter=0;fontSize=13;" parent="1" source="DhbHKgyXgL_2z6RSFWDE-72" target="DhbHKgyXgL_2z6RSFWDE-76" edge="1">
          <mxGeometry relative="1" as="geometry" />
        </mxCell>
        <mxCell id="DhbHKgyXgL_2z6RSFWDE-79" value="No" style="edgeLabel;html=1;align=center;verticalAlign=middle;resizable=0;points=[];fontSize=13;" parent="DhbHKgyXgL_2z6RSFWDE-77" vertex="1" connectable="0">
          <mxGeometry x="-0.2148" y="-2" relative="1" as="geometry">
            <mxPoint y="-4" as="offset" />
          </mxGeometry>
        </mxCell>
        <mxCell id="T4oPgjfY7F1XBtKqb_RU-3" style="edgeStyle=orthogonalEdgeStyle;rounded=0;orthogonalLoop=1;jettySize=auto;html=1;exitX=0.5;exitY=1;exitDx=0;exitDy=0;exitPerimeter=0;fontSize=13;" parent="1" source="DhbHKgyXgL_2z6RSFWDE-72" target="T4oPgjfY7F1XBtKqb_RU-17" edge="1">
          <mxGeometry relative="1" as="geometry">
            <mxPoint x="450" y="-180" as="targetPoint" />
          </mxGeometry>
        </mxCell>
        <mxCell id="T4oPgjfY7F1XBtKqb_RU-5" value="Yes" style="edgeLabel;html=1;align=center;verticalAlign=middle;resizable=0;points=[];fontSize=13;" parent="T4oPgjfY7F1XBtKqb_RU-3" vertex="1" connectable="0">
          <mxGeometry x="-0.346" relative="1" as="geometry">
            <mxPoint as="offset" />
          </mxGeometry>
        </mxCell>
        <mxCell id="DhbHKgyXgL_2z6RSFWDE-72" value="All images motion-corrected?" style="strokeWidth=2;html=1;shape=mxgraph.flowchart.decision;whiteSpace=wrap;fontSize=13;fillColor=#d5e8d4;strokeColor=#82b366;" parent="1" vertex="1">
          <mxGeometry x="340" y="-280" width="220" height="70" as="geometry" />
        </mxCell>
        <mxCell id="DhbHKgyXgL_2z6RSFWDE-78" style="edgeStyle=orthogonalEdgeStyle;rounded=0;orthogonalLoop=1;jettySize=auto;html=1;exitX=0;exitY=0.5;exitDx=0;exitDy=0;entryX=1;entryY=0.5;entryDx=0;entryDy=0;fontSize=13;" parent="1" source="DhbHKgyXgL_2z6RSFWDE-76" target="DhbHKgyXgL_2z6RSFWDE-70" edge="1">
          <mxGeometry relative="1" as="geometry" />
        </mxCell>
        <mxCell id="DhbHKgyXgL_2z6RSFWDE-76" value="Set chunk size = 1&lt;br&gt;(serial run)" style="rounded=1;whiteSpace=wrap;html=1;absoluteArcSize=1;arcSize=14;strokeWidth=2;fontSize=13;fillColor=#d5e8d4;strokeColor=#82b366;" parent="1" vertex="1">
          <mxGeometry x="650" y="-350" width="130" height="40" as="geometry" />
        </mxCell>
        <mxCell id="DhbHKgyXgL_2z6RSFWDE-80" value="&lt;i&gt;*This means inadequate GPU memory&lt;/i&gt;" style="text;html=1;align=left;verticalAlign=middle;resizable=0;points=[];autosize=1;strokeColor=none;fontSize=13;" parent="1" vertex="1">
          <mxGeometry x="570" y="-240" width="240" height="20" as="geometry" />
        </mxCell>
        <mxCell id="T4oPgjfY7F1XBtKqb_RU-23" style="edgeStyle=orthogonalEdgeStyle;rounded=0;orthogonalLoop=1;jettySize=auto;html=1;exitX=0.5;exitY=1;exitDx=0;exitDy=0;fontSize=13;" parent="1" source="T4oPgjfY7F1XBtKqb_RU-6" target="T4oPgjfY7F1XBtKqb_RU-22" edge="1">
          <mxGeometry relative="1" as="geometry" />
        </mxCell>
        <mxCell id="T4oPgjfY7F1XBtKqb_RU-6" value="Run &lt;b&gt;CTFfind&lt;/b&gt;" style="rounded=1;whiteSpace=wrap;html=1;absoluteArcSize=1;arcSize=14;strokeWidth=2;fontSize=13;fillColor=#e1d5e7;strokeColor=#9673a6;" parent="1" vertex="1">
          <mxGeometry x="400" y="-70" width="100" height="40" as="geometry" />
        </mxCell>
        <mxCell id="T4oPgjfY7F1XBtKqb_RU-14" style="edgeStyle=orthogonalEdgeStyle;rounded=0;orthogonalLoop=1;jettySize=auto;html=1;fontSize=13;" parent="1" source="T4oPgjfY7F1XBtKqb_RU-12" target="DhbHKgyXgL_2z6RSFWDE-68" edge="1">
          <mxGeometry relative="1" as="geometry">
            <Array as="points">
              <mxPoint x="450" y="-460" />
              <mxPoint x="450" y="-460" />
            </Array>
          </mxGeometry>
        </mxCell>
        <mxCell id="T4oPgjfY7F1XBtKqb_RU-15" value="Yes" style="edgeLabel;html=1;align=center;verticalAlign=middle;resizable=0;points=[];fontSize=13;" parent="T4oPgjfY7F1XBtKqb_RU-14" vertex="1" connectable="0">
          <mxGeometry x="-0.4381" y="-1" relative="1" as="geometry">
            <mxPoint x="1" y="6" as="offset" />
          </mxGeometry>
        </mxCell>
        <mxCell id="T4oPgjfY7F1XBtKqb_RU-18" style="edgeStyle=orthogonalEdgeStyle;rounded=0;orthogonalLoop=1;jettySize=auto;html=1;exitX=1;exitY=0.5;exitDx=0;exitDy=0;exitPerimeter=0;fontSize=13;endArrow=none;endFill=0;" parent="1" source="T4oPgjfY7F1XBtKqb_RU-12" edge="1">
          <mxGeometry relative="1" as="geometry">
            <mxPoint x="450" y="-190" as="targetPoint" />
            <Array as="points">
              <mxPoint x="820" y="-490" />
              <mxPoint x="820" y="-180" />
              <mxPoint x="450" y="-180" />
            </Array>
          </mxGeometry>
        </mxCell>
        <mxCell id="T4oPgjfY7F1XBtKqb_RU-19" value="No" style="edgeLabel;html=1;align=center;verticalAlign=middle;resizable=0;points=[];fontSize=13;" parent="T4oPgjfY7F1XBtKqb_RU-18" vertex="1" connectable="0">
          <mxGeometry x="-0.8256" y="-1" relative="1" as="geometry">
            <mxPoint as="offset" />
          </mxGeometry>
        </mxCell>
        <mxCell id="T4oPgjfY7F1XBtKqb_RU-12" value="Run &lt;b&gt;MotionCor2?&lt;/b&gt;" style="strokeWidth=2;html=1;shape=mxgraph.flowchart.decision;whiteSpace=wrap;rounded=1;fontSize=13;" parent="1" vertex="1">
          <mxGeometry x="340" y="-510" width="220" height="40" as="geometry" />
        </mxCell>
        <mxCell id="T4oPgjfY7F1XBtKqb_RU-20" style="edgeStyle=orthogonalEdgeStyle;rounded=0;orthogonalLoop=1;jettySize=auto;html=1;fontSize=13;" parent="1" source="T4oPgjfY7F1XBtKqb_RU-17" target="T4oPgjfY7F1XBtKqb_RU-6" edge="1">
          <mxGeometry relative="1" as="geometry" />
        </mxCell>
        <mxCell id="T4oPgjfY7F1XBtKqb_RU-21" value="Yes" style="edgeLabel;html=1;align=center;verticalAlign=middle;resizable=0;points=[];fontSize=13;" parent="T4oPgjfY7F1XBtKqb_RU-20" vertex="1" connectable="0">
          <mxGeometry x="-0.2704" y="-1" relative="1" as="geometry">
            <mxPoint as="offset" />
          </mxGeometry>
        </mxCell>
        <mxCell id="T4oPgjfY7F1XBtKqb_RU-24" style="edgeStyle=orthogonalEdgeStyle;rounded=0;orthogonalLoop=1;jettySize=auto;html=1;exitX=1;exitY=0.5;exitDx=0;exitDy=0;exitPerimeter=0;fontSize=13;endArrow=none;endFill=0;" parent="1" source="T4oPgjfY7F1XBtKqb_RU-17" edge="1">
          <mxGeometry relative="1" as="geometry">
            <Array as="points">
              <mxPoint x="620" y="-140" />
              <mxPoint x="620" y="-10" />
            </Array>
            <mxPoint x="450" y="-10" as="targetPoint" />
          </mxGeometry>
        </mxCell>
        <mxCell id="T4oPgjfY7F1XBtKqb_RU-25" value="No" style="edgeLabel;html=1;align=center;verticalAlign=middle;resizable=0;points=[];fontSize=13;" parent="T4oPgjfY7F1XBtKqb_RU-24" vertex="1" connectable="0">
          <mxGeometry x="-0.73" relative="1" as="geometry">
            <mxPoint as="offset" />
          </mxGeometry>
        </mxCell>
        <mxCell id="T4oPgjfY7F1XBtKqb_RU-17" value="Run &lt;b&gt;CTFfind?&lt;/b&gt;" style="strokeWidth=2;html=1;shape=mxgraph.flowchart.decision;whiteSpace=wrap;rounded=1;fontSize=13;" parent="1" vertex="1">
          <mxGeometry x="340" y="-160" width="220" height="40" as="geometry" />
        </mxCell>
        <mxCell id="ecBJDaTKs6xn7I5bQCrs-6" style="edgeStyle=orthogonalEdgeStyle;rounded=0;orthogonalLoop=1;jettySize=auto;html=1;exitX=0.5;exitY=1;exitDx=0;exitDy=0;exitPerimeter=0;endArrow=none;endFill=0;" parent="1" source="T4oPgjfY7F1XBtKqb_RU-22" target="ecBJDaTKs6xn7I5bQCrs-2" edge="1">
          <mxGeometry relative="1" as="geometry" />
        </mxCell>
        <mxCell id="ecBJDaTKs6xn7I5bQCrs-8" value="Yes" style="edgeLabel;html=1;align=center;verticalAlign=middle;resizable=0;points=[];" parent="ecBJDaTKs6xn7I5bQCrs-6" vertex="1" connectable="0">
          <mxGeometry x="-0.232" y="1" relative="1" as="geometry">
            <mxPoint as="offset" />
          </mxGeometry>
        </mxCell>
        <mxCell id="ecBJDaTKs6xn7I5bQCrs-7" style="edgeStyle=orthogonalEdgeStyle;rounded=0;orthogonalLoop=1;jettySize=auto;html=1;exitX=1;exitY=0.5;exitDx=0;exitDy=0;exitPerimeter=0;endArrow=none;endFill=0;" parent="1" source="T4oPgjfY7F1XBtKqb_RU-22" edge="1">
          <mxGeometry relative="1" as="geometry">
            <mxPoint x="450" y="150" as="targetPoint" />
            <Array as="points">
              <mxPoint x="580" y="30" />
              <mxPoint x="580" y="160" />
              <mxPoint x="450" y="160" />
            </Array>
          </mxGeometry>
        </mxCell>
        <mxCell id="ecBJDaTKs6xn7I5bQCrs-9" value="No" style="edgeLabel;html=1;align=center;verticalAlign=middle;resizable=0;points=[];" parent="ecBJDaTKs6xn7I5bQCrs-7" vertex="1" connectable="0">
          <mxGeometry x="-0.4483" y="1" relative="1" as="geometry">
            <mxPoint as="offset" />
          </mxGeometry>
        </mxCell>
        <mxCell id="T4oPgjfY7F1XBtKqb_RU-22" value="Create stack?" style="strokeWidth=2;html=1;shape=mxgraph.flowchart.decision;whiteSpace=wrap;rounded=1;fontSize=13;" parent="1" vertex="1">
          <mxGeometry x="340" y="10" width="220" height="40" as="geometry" />
        </mxCell>
        <mxCell id="ecBJDaTKs6xn7I5bQCrs-1" style="edgeStyle=orthogonalEdgeStyle;rounded=0;orthogonalLoop=1;jettySize=auto;html=1;exitX=0.5;exitY=1;exitDx=0;exitDy=0;fontSize=13;" parent="1" source="ecBJDaTKs6xn7I5bQCrs-2" target="ecBJDaTKs6xn7I5bQCrs-4" edge="1">
          <mxGeometry relative="1" as="geometry">
            <mxPoint x="450" y="180" as="targetPoint" />
          </mxGeometry>
        </mxCell>
        <mxCell id="ecBJDaTKs6xn7I5bQCrs-2" value="Run &lt;b&gt;BatchTomo&lt;/b&gt;" style="rounded=1;whiteSpace=wrap;html=1;absoluteArcSize=1;arcSize=14;strokeWidth=2;fontSize=13;fillColor=#e1d5e7;strokeColor=#9673a6;" parent="1" vertex="1">
          <mxGeometry x="380" y="100" width="140" height="40" as="geometry" />
        </mxCell>
        <mxCell id="ecBJDaTKs6xn7I5bQCrs-4" value="End OTTERec" style="strokeWidth=2;html=1;shape=mxgraph.flowchart.terminator;whiteSpace=wrap;fillColor=#6a00ff;strokeColor=#3700CC;fontColor=#ffffff;fontSize=13;fontStyle=1" parent="1" vertex="1">
          <mxGeometry x="400" y="180" width="100" height="60" as="geometry" />
        </mxCell>
      </root>
    </mxGraphModel>
  </diagram>
  <diagram id="GgjASAZ1AlctklzeVHXa" name="OTTERec2">
    <mxGraphModel dx="5688" dy="4292" grid="1" gridSize="10" guides="1" tooltips="1" connect="1" arrows="1" fold="1" page="1" pageScale="1" pageWidth="850" pageHeight="1100" math="0" shadow="0">
      <root>
        <mxCell id="s87ekahSDVwL-AXoMf6T-0" />
        <mxCell id="s87ekahSDVwL-AXoMf6T-1" parent="s87ekahSDVwL-AXoMf6T-0" />
        <mxCell id="s87ekahSDVwL-AXoMf6T-2" style="edgeStyle=orthogonalEdgeStyle;orthogonalLoop=1;jettySize=auto;html=1;fontSize=16;strokeColor=#3700CC;strokeWidth=5;shape=flexArrow;fillColor=#6a00ff;" parent="s87ekahSDVwL-AXoMf6T-1" source="s87ekahSDVwL-AXoMf6T-43" target="s87ekahSDVwL-AXoMf6T-7" edge="1">
          <mxGeometry relative="1" as="geometry">
            <mxPoint x="2530" y="-620" as="sourcePoint" />
          </mxGeometry>
        </mxCell>
        <mxCell id="s87ekahSDVwL-AXoMf6T-4" style="edgeStyle=orthogonalEdgeStyle;orthogonalLoop=1;jettySize=auto;html=1;fontSize=16;strokeColor=#3700CC;strokeWidth=4;shape=flexArrow;fillColor=#6a00ff;" parent="s87ekahSDVwL-AXoMf6T-1" source="s87ekahSDVwL-AXoMf6T-7" target="s87ekahSDVwL-AXoMf6T-63" edge="1">
          <mxGeometry relative="1" as="geometry">
            <Array as="points">
              <mxPoint x="2580" y="-430" />
              <mxPoint x="3060" y="-430" />
            </Array>
          </mxGeometry>
        </mxCell>
        <mxCell id="s87ekahSDVwL-AXoMf6T-5" style="edgeStyle=orthogonalEdgeStyle;shape=flexArrow;orthogonalLoop=1;jettySize=auto;html=1;fontSize=16;strokeColor=#3700CC;strokeWidth=4;entryX=0.5;entryY=0;entryDx=0;entryDy=0;fillColor=#6a00ff;" parent="s87ekahSDVwL-AXoMf6T-1" source="s87ekahSDVwL-AXoMf6T-7" target="s87ekahSDVwL-AXoMf6T-31" edge="1">
          <mxGeometry relative="1" as="geometry">
            <Array as="points">
              <mxPoint x="985" y="-540" />
            </Array>
          </mxGeometry>
        </mxCell>
        <mxCell id="s87ekahSDVwL-AXoMf6T-255" style="edgeStyle=orthogonalEdgeStyle;rounded=0;orthogonalLoop=1;jettySize=auto;html=1;exitX=0;exitY=0;exitDx=20;exitDy=80;exitPerimeter=0;fontFamily=Verdana;fontSize=20;fontColor=#000000;strokeWidth=4;shape=flexArrow;fillColor=#6a00ff;strokeColor=#3700CC;" parent="s87ekahSDVwL-AXoMf6T-1" source="s87ekahSDVwL-AXoMf6T-7" target="s87ekahSDVwL-AXoMf6T-81" edge="1">
          <mxGeometry relative="1" as="geometry">
            <Array as="points">
              <mxPoint x="2470" y="-420" />
              <mxPoint x="2000" y="-420" />
            </Array>
          </mxGeometry>
        </mxCell>
        <mxCell id="s87ekahSDVwL-AXoMf6T-256" style="edgeStyle=orthogonalEdgeStyle;shape=flexArrow;rounded=0;orthogonalLoop=1;jettySize=auto;html=1;exitX=0;exitY=0;exitDx=120;exitDy=50;exitPerimeter=0;entryX=0.5;entryY=0;entryDx=0;entryDy=0;fontFamily=Verdana;fontSize=20;fontColor=#000000;strokeWidth=4;fillColor=#6a00ff;strokeColor=#3700CC;" parent="s87ekahSDVwL-AXoMf6T-1" source="s87ekahSDVwL-AXoMf6T-7" target="s87ekahSDVwL-AXoMf6T-205" edge="1">
          <mxGeometry relative="1" as="geometry" />
        </mxCell>
        <mxCell id="s87ekahSDVwL-AXoMf6T-7" value="&lt;font style=&quot;font-size: 30px;&quot;&gt;&lt;span style=&quot;font-size: 30px;&quot;&gt;Tasks&lt;/span&gt;&lt;/font&gt;" style="shape=cube;whiteSpace=wrap;html=1;boundedLbl=1;backgroundOutline=1;darkOpacity=0.05;darkOpacity2=0.1;strokeWidth=2;fillColor=#6a00ff;strokeColor=#3700CC;fontColor=#ffffff;fontSize=30;fontStyle=1" parent="s87ekahSDVwL-AXoMf6T-1" vertex="1">
          <mxGeometry x="2450" y="-590" width="160" height="100" as="geometry" />
        </mxCell>
        <mxCell id="s87ekahSDVwL-AXoMf6T-259" style="edgeStyle=orthogonalEdgeStyle;shape=flexArrow;rounded=0;orthogonalLoop=1;jettySize=auto;html=1;entryX=0;entryY=0.5;entryDx=0;entryDy=0;entryPerimeter=0;fontFamily=Verdana;fontSize=33;fontColor=#000000;strokeWidth=4;fillColor=#6a00ff;strokeColor=#3700CC;" parent="s87ekahSDVwL-AXoMf6T-1" source="s87ekahSDVwL-AXoMf6T-31" target="s87ekahSDVwL-AXoMf6T-258" edge="1">
          <mxGeometry relative="1" as="geometry">
            <Array as="points">
              <mxPoint x="985" y="1240" />
            </Array>
          </mxGeometry>
        </mxCell>
        <mxCell id="s87ekahSDVwL-AXoMf6T-31" value="OTTERec.motioncorr" style="swimlane;fontSize=30;fillColor=#d5e8d4;strokeColor=#82b366;glass=1;shadow=0;swimlaneLine=0;strokeWidth=5;" parent="s87ekahSDVwL-AXoMf6T-1" vertex="1">
          <mxGeometry x="530" y="-260" width="910" height="1080" as="geometry" />
        </mxCell>
        <mxCell id="s87ekahSDVwL-AXoMf6T-32" value="Assign subprocess chunks to GPUs &lt;br&gt;(# images per GPU)&amp;nbsp;" style="whiteSpace=wrap;html=1;absoluteArcSize=1;arcSize=14;strokeWidth=2;fontSize=13;fillColor=#d5e8d4;strokeColor=#82b366;" parent="s87ekahSDVwL-AXoMf6T-31" vertex="1">
          <mxGeometry x="340" y="630" width="280" height="40" as="geometry" />
        </mxCell>
        <mxCell id="s87ekahSDVwL-AXoMf6T-33" style="edgeStyle=orthogonalEdgeStyle;orthogonalLoop=1;jettySize=auto;html=1;exitX=0.5;exitY=1;exitDx=0;exitDy=0;fontSize=16;strokeColor=#000000;strokeWidth=2;" parent="s87ekahSDVwL-AXoMf6T-31" source="s87ekahSDVwL-AXoMf6T-34" target="s87ekahSDVwL-AXoMf6T-155" edge="1">
          <mxGeometry relative="1" as="geometry" />
        </mxCell>
        <mxCell id="s87ekahSDVwL-AXoMf6T-34" value="&lt;font style=&quot;font-size: 13px&quot;&gt;Read MC2 metadata&lt;/font&gt;" style="shape=parallelogram;html=1;strokeWidth=2;perimeter=parallelogramPerimeter;whiteSpace=wrap;arcSize=12;size=0.23;shadow=0;glass=0;fontSize=16;fillColor=#d5e8d4;strokeColor=#82b366;" parent="s87ekahSDVwL-AXoMf6T-31" vertex="1">
          <mxGeometry x="360" y="330" width="240" height="40" as="geometry" />
        </mxCell>
        <mxCell id="s87ekahSDVwL-AXoMf6T-35" style="edgeStyle=orthogonalEdgeStyle;orthogonalLoop=1;jettySize=auto;html=1;exitX=0.5;exitY=1;exitDx=0;exitDy=0;exitPerimeter=0;fontSize=16;strokeColor=#000000;strokeWidth=2;" parent="s87ekahSDVwL-AXoMf6T-31" source="s87ekahSDVwL-AXoMf6T-36" target="s87ekahSDVwL-AXoMf6T-39" edge="1">
          <mxGeometry relative="1" as="geometry">
            <mxPoint x="480.00000000000045" y="120" as="targetPoint" />
          </mxGeometry>
        </mxCell>
        <mxCell id="s87ekahSDVwL-AXoMf6T-36" value="&lt;b&gt;&lt;font style=&quot;font-size: 18px&quot;&gt;Start&lt;/font&gt;&lt;/b&gt;" style="strokeWidth=2;html=1;shape=mxgraph.flowchart.start_1;whiteSpace=wrap;shadow=0;glass=0;fontSize=16;fillColor=#d5e8d4;strokeColor=#82b366;" parent="s87ekahSDVwL-AXoMf6T-31" vertex="1">
          <mxGeometry x="430" y="40" width="100" height="60" as="geometry" />
        </mxCell>
        <mxCell id="s87ekahSDVwL-AXoMf6T-37" value="&lt;b&gt;End&lt;/b&gt;" style="strokeWidth=2;html=1;shape=mxgraph.flowchart.terminator;whiteSpace=wrap;shadow=0;glass=0;fontSize=16;fillColor=#d5e8d4;strokeColor=#82b366;" parent="s87ekahSDVwL-AXoMf6T-31" vertex="1">
          <mxGeometry x="430" y="1000" width="100" height="60" as="geometry" />
        </mxCell>
        <mxCell id="s87ekahSDVwL-AXoMf6T-105" style="edgeStyle=orthogonalEdgeStyle;rounded=0;orthogonalLoop=1;jettySize=auto;html=1;exitX=0.5;exitY=1;exitDx=0;exitDy=0;fontSize=13;strokeWidth=2;" parent="s87ekahSDVwL-AXoMf6T-31" source="s87ekahSDVwL-AXoMf6T-39" target="s87ekahSDVwL-AXoMf6T-88" edge="1">
          <mxGeometry relative="1" as="geometry" />
        </mxCell>
        <mxCell id="s87ekahSDVwL-AXoMf6T-39" value="&lt;font style=&quot;font-size: 13px&quot;&gt;Read MC2 YAML&lt;/font&gt;" style="shape=parallelogram;html=1;strokeWidth=2;perimeter=parallelogramPerimeter;whiteSpace=wrap;arcSize=12;size=0.23;shadow=0;glass=0;fontSize=16;fillColor=#d5e8d4;strokeColor=#82b366;" parent="s87ekahSDVwL-AXoMf6T-31" vertex="1">
          <mxGeometry x="360" y="140" width="240" height="40" as="geometry" />
        </mxCell>
        <mxCell id="s87ekahSDVwL-AXoMf6T-90" style="edgeStyle=orthogonalEdgeStyle;rounded=0;orthogonalLoop=1;jettySize=auto;html=1;exitX=0.5;exitY=1;exitDx=0;exitDy=0;exitPerimeter=0;entryX=0.5;entryY=0;entryDx=0;entryDy=0;strokeWidth=2;" parent="s87ekahSDVwL-AXoMf6T-31" source="s87ekahSDVwL-AXoMf6T-88" target="s87ekahSDVwL-AXoMf6T-34" edge="1">
          <mxGeometry relative="1" as="geometry" />
        </mxCell>
        <mxCell id="s87ekahSDVwL-AXoMf6T-91" value="&lt;b&gt;&lt;font style=&quot;font-size: 13px&quot;&gt;Yes&lt;/font&gt;&lt;/b&gt;" style="edgeLabel;html=1;align=center;verticalAlign=middle;resizable=0;points=[];" parent="s87ekahSDVwL-AXoMf6T-90" vertex="1" connectable="0">
          <mxGeometry x="0.32" y="1" relative="1" as="geometry">
            <mxPoint x="17" y="-13" as="offset" />
          </mxGeometry>
        </mxCell>
        <mxCell id="s87ekahSDVwL-AXoMf6T-95" value="No" style="edgeStyle=orthogonalEdgeStyle;rounded=0;orthogonalLoop=1;jettySize=auto;html=1;exitX=1;exitY=0.5;exitDx=0;exitDy=0;exitPerimeter=0;strokeWidth=2;fontSize=12;fontStyle=1" parent="s87ekahSDVwL-AXoMf6T-31" source="s87ekahSDVwL-AXoMf6T-88" target="s87ekahSDVwL-AXoMf6T-94" edge="1">
          <mxGeometry y="15" relative="1" as="geometry">
            <mxPoint as="offset" />
          </mxGeometry>
        </mxCell>
        <mxCell id="s87ekahSDVwL-AXoMf6T-88" value="&lt;font style=&quot;font-size: 13px&quot;&gt;MC2 metadata exists?&lt;/font&gt;" style="strokeWidth=2;html=1;shape=mxgraph.flowchart.decision;whiteSpace=wrap;fillColor=#d5e8d4;strokeColor=#82b366;" parent="s87ekahSDVwL-AXoMf6T-31" vertex="1">
          <mxGeometry x="360" y="220" width="240" height="70" as="geometry" />
        </mxCell>
        <mxCell id="s87ekahSDVwL-AXoMf6T-97" style="edgeStyle=orthogonalEdgeStyle;rounded=0;orthogonalLoop=1;jettySize=auto;html=1;dashed=1;fontSize=12;strokeWidth=2;" parent="s87ekahSDVwL-AXoMf6T-31" source="s87ekahSDVwL-AXoMf6T-92" target="s87ekahSDVwL-AXoMf6T-34" edge="1">
          <mxGeometry relative="1" as="geometry" />
        </mxCell>
        <mxCell id="s87ekahSDVwL-AXoMf6T-92" value="MC2&lt;br style=&quot;font-size: 20px;&quot;&gt;metadata" style="strokeWidth=2;html=1;shape=mxgraph.flowchart.direct_data;whiteSpace=wrap;fillColor=#60a917;strokeColor=#2D7600;fontSize=20;fontStyle=1;fontColor=#ffffff;" parent="s87ekahSDVwL-AXoMf6T-31" vertex="1">
          <mxGeometry x="750" y="315" width="140" height="70" as="geometry" />
        </mxCell>
        <mxCell id="s87ekahSDVwL-AXoMf6T-96" style="edgeStyle=orthogonalEdgeStyle;rounded=0;orthogonalLoop=1;jettySize=auto;html=1;exitX=0.5;exitY=1;exitDx=0;exitDy=0;fontSize=12;strokeWidth=2;dashed=1;" parent="s87ekahSDVwL-AXoMf6T-31" source="s87ekahSDVwL-AXoMf6T-94" target="s87ekahSDVwL-AXoMf6T-92" edge="1">
          <mxGeometry relative="1" as="geometry" />
        </mxCell>
        <mxCell id="s87ekahSDVwL-AXoMf6T-94" value="Create MC2 metadata" style="whiteSpace=wrap;html=1;absoluteArcSize=1;arcSize=14;strokeWidth=2;fontSize=13;fillColor=#d5e8d4;strokeColor=#82b366;" parent="s87ekahSDVwL-AXoMf6T-31" vertex="1">
          <mxGeometry x="740" y="235" width="160" height="40" as="geometry" />
        </mxCell>
        <mxCell id="s87ekahSDVwL-AXoMf6T-104" style="edgeStyle=orthogonalEdgeStyle;rounded=0;orthogonalLoop=1;jettySize=auto;html=1;fontSize=13;strokeWidth=2;dashed=1;entryX=0.5;entryY=1;entryDx=0;entryDy=0;entryPerimeter=0;" parent="s87ekahSDVwL-AXoMf6T-31" source="s87ekahSDVwL-AXoMf6T-98" target="s87ekahSDVwL-AXoMf6T-92" edge="1">
          <mxGeometry relative="1" as="geometry">
            <mxPoint x="755" y="430" as="targetPoint" />
            <Array as="points">
              <mxPoint x="870" y="950" />
              <mxPoint x="870" y="590" />
              <mxPoint x="820" y="590" />
            </Array>
          </mxGeometry>
        </mxCell>
        <mxCell id="Y5SJRaH_rNokmWIUNs9c-5" style="edgeStyle=orthogonalEdgeStyle;rounded=0;jumpStyle=arc;jumpSize=33;orthogonalLoop=1;jettySize=auto;html=1;exitX=0.5;exitY=1;exitDx=0;exitDy=0;fontSize=20;strokeWidth=2;" edge="1" parent="s87ekahSDVwL-AXoMf6T-31" source="s87ekahSDVwL-AXoMf6T-98" target="s87ekahSDVwL-AXoMf6T-37">
          <mxGeometry relative="1" as="geometry" />
        </mxCell>
        <mxCell id="s87ekahSDVwL-AXoMf6T-98" value="Update MC2 metadata" style="whiteSpace=wrap;html=1;absoluteArcSize=1;arcSize=14;strokeWidth=2;fontSize=13;fillColor=#d5e8d4;strokeColor=#82b366;" parent="s87ekahSDVwL-AXoMf6T-31" vertex="1">
          <mxGeometry x="400" y="930" width="160" height="40" as="geometry" />
        </mxCell>
        <mxCell id="s87ekahSDVwL-AXoMf6T-17" value="Run&lt;b&gt;&amp;nbsp;MotionCor2&lt;/b&gt;&amp;nbsp;on chunks" style="whiteSpace=wrap;html=1;absoluteArcSize=1;arcSize=14;strokeWidth=2;fontSize=13;fillColor=#d5e8d4;strokeColor=#82b366;" parent="s87ekahSDVwL-AXoMf6T-31" vertex="1">
          <mxGeometry x="390" y="720" width="180" height="40" as="geometry" />
        </mxCell>
        <mxCell id="s87ekahSDVwL-AXoMf6T-15" style="edgeStyle=orthogonalEdgeStyle;orthogonalLoop=1;jettySize=auto;html=1;fontSize=13;strokeWidth=2;" parent="s87ekahSDVwL-AXoMf6T-31" source="s87ekahSDVwL-AXoMf6T-32" target="s87ekahSDVwL-AXoMf6T-17" edge="1">
          <mxGeometry relative="1" as="geometry">
            <mxPoint x="480" y="700" as="sourcePoint" />
          </mxGeometry>
        </mxCell>
        <mxCell id="s87ekahSDVwL-AXoMf6T-101" style="edgeStyle=orthogonalEdgeStyle;rounded=0;orthogonalLoop=1;jettySize=auto;html=1;exitX=1;exitY=0.5;exitDx=0;exitDy=0;dashed=1;fontSize=12;strokeWidth=2;entryX=0;entryY=0.5;entryDx=0;entryDy=0;entryPerimeter=0;" parent="s87ekahSDVwL-AXoMf6T-31" source="s87ekahSDVwL-AXoMf6T-17" target="Y5SJRaH_rNokmWIUNs9c-0" edge="1">
          <mxGeometry relative="1" as="geometry">
            <mxPoint x="610" y="750" as="targetPoint" />
          </mxGeometry>
        </mxCell>
        <mxCell id="s87ekahSDVwL-AXoMf6T-21" value="All images motion-corrected?" style="strokeWidth=2;html=1;shape=mxgraph.flowchart.decision;whiteSpace=wrap;fontSize=13;fillColor=#d5e8d4;strokeColor=#82b366;" parent="s87ekahSDVwL-AXoMf6T-31" vertex="1">
          <mxGeometry x="370" y="810" width="220" height="70" as="geometry" />
        </mxCell>
        <mxCell id="s87ekahSDVwL-AXoMf6T-16" style="edgeStyle=orthogonalEdgeStyle;orthogonalLoop=1;jettySize=auto;html=1;exitX=0.5;exitY=1;exitDx=0;exitDy=0;fontSize=13;strokeWidth=2;" parent="s87ekahSDVwL-AXoMf6T-31" source="s87ekahSDVwL-AXoMf6T-17" target="s87ekahSDVwL-AXoMf6T-21" edge="1">
          <mxGeometry relative="1" as="geometry" />
        </mxCell>
        <mxCell id="s87ekahSDVwL-AXoMf6T-102" value="Yes" style="edgeStyle=orthogonalEdgeStyle;rounded=0;orthogonalLoop=1;jettySize=auto;html=1;exitX=0.5;exitY=1;exitDx=0;exitDy=0;exitPerimeter=0;fontSize=14;strokeWidth=2;fontStyle=1;entryX=0.5;entryY=1;entryDx=0;entryDy=0;entryPerimeter=0;" parent="s87ekahSDVwL-AXoMf6T-31" source="s87ekahSDVwL-AXoMf6T-21" target="s87ekahSDVwL-AXoMf6T-159" edge="1">
          <mxGeometry x="-0.7538" y="-10" relative="1" as="geometry">
            <mxPoint as="offset" />
            <mxPoint x="610" y="900" as="targetPoint" />
          </mxGeometry>
        </mxCell>
        <mxCell id="s87ekahSDVwL-AXoMf6T-23" value="Set chunk size = 1&lt;br&gt;(serial run)" style="whiteSpace=wrap;html=1;absoluteArcSize=1;arcSize=14;strokeWidth=2;fontSize=13;fillColor=#d5e8d4;strokeColor=#82b366;" parent="s87ekahSDVwL-AXoMf6T-31" vertex="1">
          <mxGeometry x="210" y="720" width="130" height="40" as="geometry" />
        </mxCell>
        <mxCell id="s87ekahSDVwL-AXoMf6T-18" style="edgeStyle=orthogonalEdgeStyle;orthogonalLoop=1;jettySize=auto;html=1;exitX=0;exitY=0.5;exitDx=0;exitDy=0;exitPerimeter=0;fontSize=13;strokeWidth=2;" parent="s87ekahSDVwL-AXoMf6T-31" source="s87ekahSDVwL-AXoMf6T-21" target="s87ekahSDVwL-AXoMf6T-23" edge="1">
          <mxGeometry relative="1" as="geometry" />
        </mxCell>
        <mxCell id="s87ekahSDVwL-AXoMf6T-19" value="No" style="edgeLabel;html=1;align=center;verticalAlign=middle;resizable=0;points=[];fontSize=14;fontStyle=1" parent="s87ekahSDVwL-AXoMf6T-18" vertex="1" connectable="0">
          <mxGeometry x="-0.2148" y="-2" relative="1" as="geometry">
            <mxPoint x="51" y="-13" as="offset" />
          </mxGeometry>
        </mxCell>
        <mxCell id="s87ekahSDVwL-AXoMf6T-22" style="edgeStyle=orthogonalEdgeStyle;orthogonalLoop=1;jettySize=auto;html=1;exitX=1;exitY=0.5;exitDx=0;exitDy=0;fontSize=13;strokeWidth=2;" parent="s87ekahSDVwL-AXoMf6T-31" source="s87ekahSDVwL-AXoMf6T-23" target="s87ekahSDVwL-AXoMf6T-17" edge="1">
          <mxGeometry relative="1" as="geometry" />
        </mxCell>
        <mxCell id="s87ekahSDVwL-AXoMf6T-157" value="No" style="edgeStyle=orthogonalEdgeStyle;rounded=0;orthogonalLoop=1;jettySize=auto;html=1;exitX=0.5;exitY=1;exitDx=0;exitDy=0;exitPerimeter=0;fontSize=14;strokeWidth=2;fontStyle=1" parent="s87ekahSDVwL-AXoMf6T-31" source="s87ekahSDVwL-AXoMf6T-155" target="s87ekahSDVwL-AXoMf6T-32" edge="1">
          <mxGeometry x="-0.2" y="20" relative="1" as="geometry">
            <mxPoint as="offset" />
          </mxGeometry>
        </mxCell>
        <mxCell id="s87ekahSDVwL-AXoMf6T-160" value="Yes" style="edgeStyle=orthogonalEdgeStyle;rounded=0;orthogonalLoop=1;jettySize=auto;html=1;exitX=0;exitY=0.5;exitDx=0;exitDy=0;exitPerimeter=0;fontSize=14;strokeWidth=2;fontStyle=1" parent="s87ekahSDVwL-AXoMf6T-31" source="s87ekahSDVwL-AXoMf6T-155" target="s87ekahSDVwL-AXoMf6T-159" edge="1">
          <mxGeometry y="15" relative="1" as="geometry">
            <mxPoint as="offset" />
          </mxGeometry>
        </mxCell>
        <mxCell id="s87ekahSDVwL-AXoMf6T-155" value="&lt;span style=&quot;font-size: 13px&quot;&gt;Current set already &lt;br&gt;MotionCorr&#39;d?&lt;/span&gt;" style="strokeWidth=2;html=1;shape=mxgraph.flowchart.decision;whiteSpace=wrap;fillColor=#d5e8d4;strokeColor=#82b366;" parent="s87ekahSDVwL-AXoMf6T-31" vertex="1">
          <mxGeometry x="360" y="510" width="240" height="70" as="geometry" />
        </mxCell>
        <mxCell id="s87ekahSDVwL-AXoMf6T-161" value="No" style="edgeStyle=orthogonalEdgeStyle;rounded=0;orthogonalLoop=1;jettySize=auto;html=1;exitX=0.5;exitY=0;exitDx=0;exitDy=0;exitPerimeter=0;fontSize=14;strokeWidth=2;fontStyle=1" parent="s87ekahSDVwL-AXoMf6T-31" source="s87ekahSDVwL-AXoMf6T-159" target="s87ekahSDVwL-AXoMf6T-158" edge="1">
          <mxGeometry x="0.0909" relative="1" as="geometry">
            <mxPoint as="offset" />
          </mxGeometry>
        </mxCell>
        <mxCell id="s87ekahSDVwL-AXoMf6T-162" value="Yes" style="edgeStyle=orthogonalEdgeStyle;rounded=0;orthogonalLoop=1;jettySize=auto;html=1;exitX=0;exitY=0.5;exitDx=0;exitDy=0;exitPerimeter=0;fontSize=14;strokeWidth=2;fontStyle=1;entryX=0;entryY=0.5;entryDx=0;entryDy=0;" parent="s87ekahSDVwL-AXoMf6T-31" source="s87ekahSDVwL-AXoMf6T-159" target="s87ekahSDVwL-AXoMf6T-98" edge="1">
          <mxGeometry x="-0.9007" y="20" relative="1" as="geometry">
            <mxPoint as="offset" />
            <mxPoint x="130" y="1020" as="targetPoint" />
          </mxGeometry>
        </mxCell>
        <mxCell id="s87ekahSDVwL-AXoMf6T-159" value="&lt;span style=&quot;font-size: 13px&quot;&gt;Current set == &lt;br&gt;final set in metadata?&lt;/span&gt;" style="strokeWidth=2;html=1;shape=mxgraph.flowchart.decision;whiteSpace=wrap;fillColor=#d5e8d4;strokeColor=#82b366;" parent="s87ekahSDVwL-AXoMf6T-31" vertex="1">
          <mxGeometry x="50" y="510" width="240" height="70" as="geometry" />
        </mxCell>
        <mxCell id="s87ekahSDVwL-AXoMf6T-158" value="Set # = Set # + 1" style="strokeWidth=2;html=1;shape=mxgraph.flowchart.loop_limit;whiteSpace=wrap;fontSize=14;fillColor=#d5e8d4;strokeColor=#82b366;" parent="s87ekahSDVwL-AXoMf6T-31" vertex="1">
          <mxGeometry x="100" y="410" width="140" height="45" as="geometry" />
        </mxCell>
        <mxCell id="s87ekahSDVwL-AXoMf6T-163" style="edgeStyle=orthogonalEdgeStyle;rounded=0;orthogonalLoop=1;jettySize=auto;html=1;exitX=1;exitY=0.5;exitDx=0;exitDy=0;exitPerimeter=0;fontSize=14;strokeWidth=2;entryX=0.5;entryY=0;entryDx=0;entryDy=0;entryPerimeter=0;" parent="s87ekahSDVwL-AXoMf6T-31" source="s87ekahSDVwL-AXoMf6T-158" target="s87ekahSDVwL-AXoMf6T-155" edge="1">
          <mxGeometry relative="1" as="geometry">
            <mxPoint x="620" y="432.8333333333335" as="targetPoint" />
          </mxGeometry>
        </mxCell>
        <mxCell id="Y5SJRaH_rNokmWIUNs9c-0" value="&lt;font face=&quot;Helvetica&quot;&gt;MotionCorr&#39;d&lt;br&gt;Images&lt;/font&gt;" style="strokeWidth=2;html=1;shape=mxgraph.flowchart.multi-document;whiteSpace=wrap;fontFamily=Verdana;fontSize=20;fontStyle=1" vertex="1" parent="s87ekahSDVwL-AXoMf6T-31">
          <mxGeometry x="640" y="670" width="170" height="140" as="geometry" />
        </mxCell>
        <mxCell id="s87ekahSDVwL-AXoMf6T-43" value="&lt;span style=&quot;color: rgb(255 , 255 , 255) ; font-size: 35px&quot;&gt;Start OTTERec2&lt;/span&gt;" style="strokeWidth=2;html=1;shape=mxgraph.flowchart.start_1;whiteSpace=wrap;shadow=0;glass=0;fontSize=35;fillColor=#6a00ff;strokeColor=#3700CC;fontColor=#ffffff;fontStyle=1" parent="s87ekahSDVwL-AXoMf6T-1" vertex="1">
          <mxGeometry x="2360" y="-920" width="340" height="180" as="geometry" />
        </mxCell>
        <mxCell id="s87ekahSDVwL-AXoMf6T-261" style="edgeStyle=orthogonalEdgeStyle;shape=flexArrow;rounded=0;orthogonalLoop=1;jettySize=auto;html=1;exitX=0.5;exitY=1;exitDx=0;exitDy=0;entryX=0.89;entryY=0.11;entryDx=0;entryDy=0;entryPerimeter=0;fontFamily=Verdana;fontSize=33;fontColor=#000000;strokeWidth=4;fillColor=#6a00ff;strokeColor=#3700CC;" parent="s87ekahSDVwL-AXoMf6T-1" source="s87ekahSDVwL-AXoMf6T-63" target="s87ekahSDVwL-AXoMf6T-258" edge="1">
          <mxGeometry relative="1" as="geometry">
            <Array as="points">
              <mxPoint x="3060" y="1080" />
              <mxPoint x="2657" y="1080" />
            </Array>
          </mxGeometry>
        </mxCell>
        <mxCell id="s87ekahSDVwL-AXoMf6T-63" value="OTTERec.align" style="swimlane;shadow=0;glass=1;fontSize=30;fillColor=#e1d5e7;strokeColor=#9673a6;strokeWidth=5;swimlaneLine=0;perimeterSpacing=1;swimlaneFillColor=none;" parent="s87ekahSDVwL-AXoMf6T-1" vertex="1">
          <mxGeometry x="2560" y="-260" width="1000" height="1080" as="geometry" />
        </mxCell>
        <mxCell id="s87ekahSDVwL-AXoMf6T-66" value="&lt;font style=&quot;font-size: 13px&quot;&gt;Read BatchTomo_align&lt;br&gt;metadata&lt;br&gt;&lt;/font&gt;" style="shape=parallelogram;html=1;strokeWidth=2;perimeter=parallelogramPerimeter;whiteSpace=wrap;arcSize=12;size=0.23;shadow=0;glass=0;fontSize=16;fillColor=#e1d5e7;strokeColor=#9673a6;" parent="s87ekahSDVwL-AXoMf6T-63" vertex="1">
          <mxGeometry x="360" y="400" width="240" height="40" as="geometry" />
        </mxCell>
        <mxCell id="s87ekahSDVwL-AXoMf6T-67" style="edgeStyle=orthogonalEdgeStyle;orthogonalLoop=1;jettySize=auto;html=1;exitX=0.5;exitY=1;exitDx=0;exitDy=0;fontSize=16;strokeColor=#000000;strokeWidth=2;" parent="s87ekahSDVwL-AXoMf6T-63" source="s87ekahSDVwL-AXoMf6T-66" target="s87ekahSDVwL-AXoMf6T-186" edge="1">
          <mxGeometry relative="1" as="geometry">
            <mxPoint x="480" y="540" as="targetPoint" />
          </mxGeometry>
        </mxCell>
        <mxCell id="s87ekahSDVwL-AXoMf6T-129" style="edgeStyle=orthogonalEdgeStyle;rounded=0;orthogonalLoop=1;jettySize=auto;html=1;exitX=0.5;exitY=1;exitDx=0;exitDy=0;fontSize=14;strokeWidth=2;" parent="s87ekahSDVwL-AXoMf6T-63" source="s87ekahSDVwL-AXoMf6T-70" target="s87ekahSDVwL-AXoMf6T-128" edge="1">
          <mxGeometry relative="1" as="geometry" />
        </mxCell>
        <mxCell id="s87ekahSDVwL-AXoMf6T-70" value="&lt;font style=&quot;font-size: 13px&quot;&gt;Read BatchTomo_align YAML&lt;/font&gt;" style="shape=parallelogram;html=1;strokeWidth=2;perimeter=parallelogramPerimeter;whiteSpace=wrap;arcSize=12;size=0.23;shadow=0;glass=0;fontSize=16;fillColor=#e1d5e7;strokeColor=#9673a6;" parent="s87ekahSDVwL-AXoMf6T-63" vertex="1">
          <mxGeometry x="340" y="160" width="280" height="40" as="geometry" />
        </mxCell>
        <mxCell id="s87ekahSDVwL-AXoMf6T-58" value="&lt;b&gt;&lt;font style=&quot;font-size: 18px&quot;&gt;Start&lt;/font&gt;&lt;/b&gt;" style="strokeWidth=2;html=1;shape=mxgraph.flowchart.start_1;whiteSpace=wrap;shadow=0;glass=0;fontSize=16;fillColor=#e1d5e7;strokeColor=#9673a6;" parent="s87ekahSDVwL-AXoMf6T-63" vertex="1">
          <mxGeometry x="430" y="40" width="100" height="60" as="geometry" />
        </mxCell>
        <mxCell id="s87ekahSDVwL-AXoMf6T-57" style="edgeStyle=orthogonalEdgeStyle;orthogonalLoop=1;jettySize=auto;html=1;exitX=0.5;exitY=1;exitDx=0;exitDy=0;exitPerimeter=0;fontSize=16;strokeColor=#000000;strokeWidth=2;" parent="s87ekahSDVwL-AXoMf6T-63" source="s87ekahSDVwL-AXoMf6T-58" target="s87ekahSDVwL-AXoMf6T-70" edge="1">
          <mxGeometry relative="1" as="geometry" />
        </mxCell>
        <mxCell id="s87ekahSDVwL-AXoMf6T-130" value="Yes" style="edgeStyle=orthogonalEdgeStyle;rounded=0;orthogonalLoop=1;jettySize=auto;html=1;exitX=0.5;exitY=1;exitDx=0;exitDy=0;exitPerimeter=0;fontSize=14;strokeWidth=2;fontStyle=1" parent="s87ekahSDVwL-AXoMf6T-63" source="s87ekahSDVwL-AXoMf6T-128" target="s87ekahSDVwL-AXoMf6T-66" edge="1">
          <mxGeometry x="-0.0769" y="20" relative="1" as="geometry">
            <mxPoint as="offset" />
          </mxGeometry>
        </mxCell>
        <mxCell id="s87ekahSDVwL-AXoMf6T-150" value="No" style="edgeStyle=orthogonalEdgeStyle;rounded=0;orthogonalLoop=1;jettySize=auto;html=1;fontSize=14;strokeWidth=2;fontStyle=1" parent="s87ekahSDVwL-AXoMf6T-63" source="s87ekahSDVwL-AXoMf6T-128" target="s87ekahSDVwL-AXoMf6T-147" edge="1">
          <mxGeometry y="15" relative="1" as="geometry">
            <mxPoint as="offset" />
          </mxGeometry>
        </mxCell>
        <mxCell id="s87ekahSDVwL-AXoMf6T-128" value="&lt;font style=&quot;font-size: 13px&quot;&gt;BatchTomo_align metadata &lt;br&gt;exists?&lt;/font&gt;" style="strokeWidth=2;html=1;shape=mxgraph.flowchart.decision;whiteSpace=wrap;fillColor=#e1d5e7;strokeColor=#9673a6;" parent="s87ekahSDVwL-AXoMf6T-63" vertex="1">
          <mxGeometry x="360" y="260" width="240" height="70" as="geometry" />
        </mxCell>
        <mxCell id="s87ekahSDVwL-AXoMf6T-152" style="edgeStyle=orthogonalEdgeStyle;rounded=0;orthogonalLoop=1;jettySize=auto;html=1;dashed=1;fontSize=14;strokeWidth=2;" parent="s87ekahSDVwL-AXoMf6T-63" source="s87ekahSDVwL-AXoMf6T-147" target="s87ekahSDVwL-AXoMf6T-148" edge="1">
          <mxGeometry relative="1" as="geometry" />
        </mxCell>
        <mxCell id="s87ekahSDVwL-AXoMf6T-147" value="Create BatchTomo_align&lt;br&gt;metadata" style="whiteSpace=wrap;html=1;absoluteArcSize=1;arcSize=14;strokeWidth=2;fontSize=13;fillColor=#e1d5e7;strokeColor=#9673a6;" parent="s87ekahSDVwL-AXoMf6T-63" vertex="1">
          <mxGeometry x="810" y="275" width="160" height="40" as="geometry" />
        </mxCell>
        <mxCell id="s87ekahSDVwL-AXoMf6T-154" style="edgeStyle=orthogonalEdgeStyle;rounded=0;orthogonalLoop=1;jettySize=auto;html=1;exitX=0;exitY=0.5;exitDx=0;exitDy=0;exitPerimeter=0;dashed=1;fontSize=14;strokeWidth=2;" parent="s87ekahSDVwL-AXoMf6T-63" source="s87ekahSDVwL-AXoMf6T-148" target="s87ekahSDVwL-AXoMf6T-66" edge="1">
          <mxGeometry relative="1" as="geometry" />
        </mxCell>
        <mxCell id="s87ekahSDVwL-AXoMf6T-148" value="BatchTomo_align&lt;br style=&quot;font-size: 20px;&quot;&gt;metadata" style="strokeWidth=2;html=1;shape=mxgraph.flowchart.direct_data;whiteSpace=wrap;fillColor=#76608a;strokeColor=#432D57;fontSize=20;fontStyle=1;fontColor=#ffffff;" parent="s87ekahSDVwL-AXoMf6T-63" vertex="1">
          <mxGeometry x="800" y="380" width="180" height="80" as="geometry" />
        </mxCell>
        <mxCell id="s87ekahSDVwL-AXoMf6T-193" style="edgeStyle=orthogonalEdgeStyle;rounded=0;orthogonalLoop=1;jettySize=auto;html=1;exitX=0;exitY=0.5;exitDx=0;exitDy=0;dashed=1;fontFamily=Verdana;fontSize=14;fontColor=#000000;strokeWidth=2;" parent="s87ekahSDVwL-AXoMf6T-63" source="s87ekahSDVwL-AXoMf6T-184" target="s87ekahSDVwL-AXoMf6T-192" edge="1">
          <mxGeometry relative="1" as="geometry">
            <Array as="points">
              <mxPoint x="370" y="700" />
              <mxPoint x="370" y="700" />
            </Array>
          </mxGeometry>
        </mxCell>
        <mxCell id="s87ekahSDVwL-AXoMf6T-195" style="edgeStyle=orthogonalEdgeStyle;rounded=0;orthogonalLoop=1;jettySize=auto;html=1;exitX=0.5;exitY=1;exitDx=0;exitDy=0;fontFamily=Verdana;fontSize=14;fontColor=#000000;strokeWidth=2;" parent="s87ekahSDVwL-AXoMf6T-63" source="s87ekahSDVwL-AXoMf6T-184" target="s87ekahSDVwL-AXoMf6T-194" edge="1">
          <mxGeometry relative="1" as="geometry" />
        </mxCell>
        <mxCell id="s87ekahSDVwL-AXoMf6T-184" value="Create stack for set" style="whiteSpace=wrap;html=1;absoluteArcSize=1;arcSize=14;strokeWidth=2;fontSize=13;fillColor=#e1d5e7;strokeColor=#9673a6;" parent="s87ekahSDVwL-AXoMf6T-63" vertex="1">
          <mxGeometry x="390" y="680" width="180" height="40" as="geometry" />
        </mxCell>
        <mxCell id="s87ekahSDVwL-AXoMf6T-185" value="No" style="edgeStyle=orthogonalEdgeStyle;rounded=0;orthogonalLoop=1;jettySize=auto;html=1;exitX=0.5;exitY=1;exitDx=0;exitDy=0;exitPerimeter=0;fontFamily=Verdana;fontSize=14;fontColor=#000000;strokeWidth=2;fontStyle=1" parent="s87ekahSDVwL-AXoMf6T-63" source="s87ekahSDVwL-AXoMf6T-186" target="s87ekahSDVwL-AXoMf6T-184" edge="1">
          <mxGeometry x="-0.6" y="20" relative="1" as="geometry">
            <mxPoint as="offset" />
          </mxGeometry>
        </mxCell>
        <mxCell id="s87ekahSDVwL-AXoMf6T-186" value="&lt;span style=&quot;font-size: 13px&quot;&gt;Current set already aligned?&lt;/span&gt;" style="strokeWidth=2;html=1;shape=mxgraph.flowchart.decision;whiteSpace=wrap;fillColor=#e1d5e7;strokeColor=#9673a6;" parent="s87ekahSDVwL-AXoMf6T-63" vertex="1">
          <mxGeometry x="360" y="560" width="240" height="70" as="geometry" />
        </mxCell>
        <mxCell id="s87ekahSDVwL-AXoMf6T-275" value="Yes" style="edgeStyle=orthogonalEdgeStyle;rounded=0;jumpStyle=arc;jumpSize=25;orthogonalLoop=1;jettySize=auto;html=1;exitX=0;exitY=0.5;exitDx=0;exitDy=0;exitPerimeter=0;entryX=0;entryY=0.5;entryDx=0;entryDy=0;fontFamily=Verdana;fontSize=14;fontColor=#000000;endArrow=block;endFill=1;startSize=17;strokeWidth=2;fontStyle=1" parent="s87ekahSDVwL-AXoMf6T-63" source="s87ekahSDVwL-AXoMf6T-187" target="s87ekahSDVwL-AXoMf6T-199" edge="1">
          <mxGeometry x="-0.896" y="20" relative="1" as="geometry">
            <mxPoint as="offset" />
          </mxGeometry>
        </mxCell>
        <mxCell id="s87ekahSDVwL-AXoMf6T-187" value="&lt;span style=&quot;font-size: 13px&quot;&gt;Current set == &lt;br&gt;final set in metadata?&lt;/span&gt;" style="strokeWidth=2;html=1;shape=mxgraph.flowchart.decision;whiteSpace=wrap;fillColor=#e1d5e7;strokeColor=#9673a6;" parent="s87ekahSDVwL-AXoMf6T-63" vertex="1">
          <mxGeometry x="50" y="560" width="240" height="70" as="geometry" />
        </mxCell>
        <mxCell id="s87ekahSDVwL-AXoMf6T-188" value="Yes" style="edgeStyle=orthogonalEdgeStyle;rounded=0;orthogonalLoop=1;jettySize=auto;html=1;exitX=0;exitY=0.5;exitDx=0;exitDy=0;exitPerimeter=0;fontSize=14;strokeWidth=2;fontStyle=1" parent="s87ekahSDVwL-AXoMf6T-63" source="s87ekahSDVwL-AXoMf6T-186" target="s87ekahSDVwL-AXoMf6T-187" edge="1">
          <mxGeometry x="-0.4286" y="-15" relative="1" as="geometry">
            <mxPoint as="offset" />
          </mxGeometry>
        </mxCell>
        <mxCell id="s87ekahSDVwL-AXoMf6T-189" value="Set # = Set # + 1" style="strokeWidth=2;html=1;shape=mxgraph.flowchart.loop_limit;whiteSpace=wrap;fontSize=14;fillColor=#e1d5e7;strokeColor=#9673a6;" parent="s87ekahSDVwL-AXoMf6T-63" vertex="1">
          <mxGeometry x="100" y="460" width="140" height="45" as="geometry" />
        </mxCell>
        <mxCell id="s87ekahSDVwL-AXoMf6T-190" value="No" style="edgeStyle=orthogonalEdgeStyle;rounded=0;orthogonalLoop=1;jettySize=auto;html=1;exitX=0.5;exitY=0;exitDx=0;exitDy=0;exitPerimeter=0;fontSize=14;strokeWidth=2;fontStyle=1" parent="s87ekahSDVwL-AXoMf6T-63" source="s87ekahSDVwL-AXoMf6T-187" target="s87ekahSDVwL-AXoMf6T-189" edge="1">
          <mxGeometry x="0.0909" relative="1" as="geometry">
            <mxPoint as="offset" />
          </mxGeometry>
        </mxCell>
        <mxCell id="s87ekahSDVwL-AXoMf6T-191" style="edgeStyle=orthogonalEdgeStyle;rounded=0;orthogonalLoop=1;jettySize=auto;html=1;exitX=1;exitY=0.5;exitDx=0;exitDy=0;exitPerimeter=0;fontSize=14;strokeWidth=2;entryX=0.5;entryY=0;entryDx=0;entryDy=0;entryPerimeter=0;" parent="s87ekahSDVwL-AXoMf6T-63" source="s87ekahSDVwL-AXoMf6T-189" target="s87ekahSDVwL-AXoMf6T-186" edge="1">
          <mxGeometry relative="1" as="geometry">
            <mxPoint x="-1430" y="1002.8333333333335" as="targetPoint" />
          </mxGeometry>
        </mxCell>
        <mxCell id="s87ekahSDVwL-AXoMf6T-192" value="&lt;span style=&quot;font-size: 20px&quot;&gt;&lt;span style=&quot;font-size: 20px&quot;&gt;&lt;br style=&quot;font-size: 20px&quot;&gt;Raw stacks&lt;/span&gt;&lt;/span&gt;" style="strokeWidth=2;html=1;shape=mxgraph.flowchart.database;whiteSpace=wrap;fontSize=20;fontStyle=1" parent="s87ekahSDVwL-AXoMf6T-63" vertex="1">
          <mxGeometry x="210" y="660" width="140" height="80" as="geometry" />
        </mxCell>
        <mxCell id="s87ekahSDVwL-AXoMf6T-198" style="edgeStyle=orthogonalEdgeStyle;rounded=0;orthogonalLoop=1;jettySize=auto;html=1;dashed=1;fontFamily=Verdana;fontSize=20;fontColor=#000000;strokeWidth=2;" parent="s87ekahSDVwL-AXoMf6T-63" source="s87ekahSDVwL-AXoMf6T-194" target="s87ekahSDVwL-AXoMf6T-197" edge="1">
          <mxGeometry relative="1" as="geometry" />
        </mxCell>
        <mxCell id="Y5SJRaH_rNokmWIUNs9c-8" style="edgeStyle=orthogonalEdgeStyle;rounded=0;jumpStyle=arc;jumpSize=33;orthogonalLoop=1;jettySize=auto;html=1;entryX=0.5;entryY=1;entryDx=0;entryDy=0;entryPerimeter=0;fontSize=20;strokeWidth=2;" edge="1" parent="s87ekahSDVwL-AXoMf6T-63" source="s87ekahSDVwL-AXoMf6T-194" target="s87ekahSDVwL-AXoMf6T-187">
          <mxGeometry relative="1" as="geometry" />
        </mxCell>
        <mxCell id="s87ekahSDVwL-AXoMf6T-194" value="Run BatchTomo to align" style="whiteSpace=wrap;html=1;absoluteArcSize=1;arcSize=14;strokeWidth=2;fontSize=13;fillColor=#e1d5e7;strokeColor=#9673a6;" parent="s87ekahSDVwL-AXoMf6T-63" vertex="1">
          <mxGeometry x="390" y="810" width="180" height="40" as="geometry" />
        </mxCell>
        <mxCell id="s87ekahSDVwL-AXoMf6T-197" value="&lt;br style=&quot;font-size: 20px&quot;&gt;&lt;br&gt;Post-alignment&lt;br style=&quot;font-size: 20px&quot;&gt;MRCs" style="strokeWidth=2;html=1;shape=mxgraph.flowchart.database;whiteSpace=wrap;fontSize=20;fontStyle=1;fillColor=#1ba1e2;strokeColor=#006EAF;fontColor=#ffffff;" parent="s87ekahSDVwL-AXoMf6T-63" vertex="1">
          <mxGeometry x="660" y="732.5" width="180" height="195" as="geometry" />
        </mxCell>
        <mxCell id="s87ekahSDVwL-AXoMf6T-204" style="edgeStyle=orthogonalEdgeStyle;rounded=0;orthogonalLoop=1;jettySize=auto;html=1;exitX=1;exitY=0.5;exitDx=0;exitDy=0;fontFamily=Verdana;fontSize=20;fontColor=#000000;strokeWidth=2;dashed=1;entryX=0.5;entryY=1;entryDx=0;entryDy=0;entryPerimeter=0;" parent="s87ekahSDVwL-AXoMf6T-63" source="s87ekahSDVwL-AXoMf6T-199" target="s87ekahSDVwL-AXoMf6T-148" edge="1">
          <mxGeometry relative="1" as="geometry">
            <Array as="points">
              <mxPoint x="590" y="930" />
              <mxPoint x="590" y="1010" />
              <mxPoint x="890" y="1010" />
            </Array>
            <mxPoint x="840" y="630" as="targetPoint" />
          </mxGeometry>
        </mxCell>
        <mxCell id="Y5SJRaH_rNokmWIUNs9c-10" style="edgeStyle=orthogonalEdgeStyle;rounded=0;jumpStyle=arc;jumpSize=33;orthogonalLoop=1;jettySize=auto;html=1;fontSize=20;strokeWidth=2;" edge="1" parent="s87ekahSDVwL-AXoMf6T-63" source="s87ekahSDVwL-AXoMf6T-199" target="s87ekahSDVwL-AXoMf6T-202">
          <mxGeometry relative="1" as="geometry" />
        </mxCell>
        <mxCell id="s87ekahSDVwL-AXoMf6T-199" value="Update BatchTomo_align&lt;br&gt;metadata" style="whiteSpace=wrap;html=1;absoluteArcSize=1;arcSize=14;strokeWidth=2;fontSize=13;fillColor=#e1d5e7;strokeColor=#9673a6;" parent="s87ekahSDVwL-AXoMf6T-63" vertex="1">
          <mxGeometry x="400" y="910" width="160" height="40" as="geometry" />
        </mxCell>
        <mxCell id="s87ekahSDVwL-AXoMf6T-202" value="&lt;b&gt;End&lt;/b&gt;" style="strokeWidth=2;html=1;shape=mxgraph.flowchart.terminator;whiteSpace=wrap;shadow=0;glass=0;fontSize=16;fillColor=#e1d5e7;strokeColor=#9673a6;" parent="s87ekahSDVwL-AXoMf6T-63" vertex="1">
          <mxGeometry x="430" y="1010" width="100" height="60" as="geometry" />
        </mxCell>
        <mxCell id="qlygkCRCWRt0rYqdv92X-1" style="edgeStyle=orthogonalEdgeStyle;rounded=0;jumpStyle=arc;jumpSize=33;orthogonalLoop=1;jettySize=auto;html=1;fontSize=20;strokeWidth=2;exitX=0.5;exitY=1;exitDx=0;exitDy=0;exitPerimeter=0;dashed=1;" edge="1" parent="s87ekahSDVwL-AXoMf6T-63" source="s87ekahSDVwL-AXoMf6T-192">
          <mxGeometry relative="1" as="geometry">
            <mxPoint x="460" y="810" as="targetPoint" />
            <Array as="points">
              <mxPoint x="280" y="770" />
              <mxPoint x="460" y="770" />
              <mxPoint x="460" y="810" />
            </Array>
          </mxGeometry>
        </mxCell>
        <mxCell id="s87ekahSDVwL-AXoMf6T-260" style="edgeStyle=orthogonalEdgeStyle;shape=flexArrow;rounded=0;orthogonalLoop=1;jettySize=auto;html=1;exitX=0.5;exitY=1;exitDx=0;exitDy=0;entryX=0.11;entryY=0.11;entryDx=0;entryDy=0;entryPerimeter=0;fontFamily=Verdana;fontSize=33;fontColor=#000000;strokeWidth=4;fillColor=#6a00ff;strokeColor=#3700CC;" parent="s87ekahSDVwL-AXoMf6T-1" source="s87ekahSDVwL-AXoMf6T-81" target="s87ekahSDVwL-AXoMf6T-258" edge="1">
          <mxGeometry relative="1" as="geometry">
            <Array as="points">
              <mxPoint x="2000" y="1080" />
              <mxPoint x="2423" y="1080" />
            </Array>
          </mxGeometry>
        </mxCell>
        <mxCell id="s87ekahSDVwL-AXoMf6T-81" value="OTTERec.ctffind" style="swimlane;shadow=0;glass=1;fontSize=30;fillColor=#ffe6cc;strokeColor=#d79b00;swimlaneLine=0;strokeWidth=5;" parent="s87ekahSDVwL-AXoMf6T-1" vertex="1">
          <mxGeometry x="1520" y="-260" width="960" height="1080" as="geometry" />
        </mxCell>
        <mxCell id="s87ekahSDVwL-AXoMf6T-82" value="&lt;b&gt;End&lt;/b&gt;" style="strokeWidth=2;html=1;shape=mxgraph.flowchart.terminator;whiteSpace=wrap;shadow=0;glass=0;fontSize=16;fillColor=#ffe6cc;strokeColor=#d79b00;" parent="s87ekahSDVwL-AXoMf6T-81" vertex="1">
          <mxGeometry x="450" y="990" width="100" height="60" as="geometry" />
        </mxCell>
        <mxCell id="s87ekahSDVwL-AXoMf6T-113" style="edgeStyle=orthogonalEdgeStyle;rounded=0;orthogonalLoop=1;jettySize=auto;html=1;exitX=0.5;exitY=1;exitDx=0;exitDy=0;fontSize=13;strokeWidth=2;" parent="s87ekahSDVwL-AXoMf6T-81" source="s87ekahSDVwL-AXoMf6T-80" target="s87ekahSDVwL-AXoMf6T-111" edge="1">
          <mxGeometry relative="1" as="geometry" />
        </mxCell>
        <mxCell id="s87ekahSDVwL-AXoMf6T-80" value="&lt;font style=&quot;font-size: 13px&quot;&gt;Read CTFfind YAML&lt;/font&gt;" style="shape=parallelogram;html=1;strokeWidth=2;perimeter=parallelogramPerimeter;whiteSpace=wrap;arcSize=12;size=0.23;shadow=0;glass=0;fontSize=16;fillColor=#ffe6cc;strokeColor=#d79b00;" parent="s87ekahSDVwL-AXoMf6T-81" vertex="1">
          <mxGeometry x="380" y="150" width="240" height="40" as="geometry" />
        </mxCell>
        <mxCell id="s87ekahSDVwL-AXoMf6T-74" value="&lt;b&gt;&lt;font style=&quot;font-size: 18px&quot;&gt;Start&lt;/font&gt;&lt;/b&gt;" style="strokeWidth=2;html=1;shape=mxgraph.flowchart.start_1;whiteSpace=wrap;shadow=0;glass=0;fontSize=16;fillColor=#ffe6cc;strokeColor=#d79b00;" parent="s87ekahSDVwL-AXoMf6T-81" vertex="1">
          <mxGeometry x="450" y="40" width="100" height="60" as="geometry" />
        </mxCell>
        <mxCell id="s87ekahSDVwL-AXoMf6T-73" style="edgeStyle=orthogonalEdgeStyle;orthogonalLoop=1;jettySize=auto;html=1;exitX=0.5;exitY=1;exitDx=0;exitDy=0;exitPerimeter=0;fontSize=16;strokeColor=#000000;strokeWidth=2;" parent="s87ekahSDVwL-AXoMf6T-81" source="s87ekahSDVwL-AXoMf6T-74" target="s87ekahSDVwL-AXoMf6T-80" edge="1">
          <mxGeometry relative="1" as="geometry" />
        </mxCell>
        <mxCell id="s87ekahSDVwL-AXoMf6T-114" value="Yes" style="edgeStyle=orthogonalEdgeStyle;rounded=0;orthogonalLoop=1;jettySize=auto;html=1;exitX=0.5;exitY=1;exitDx=0;exitDy=0;exitPerimeter=0;fontSize=14;strokeWidth=2;fontStyle=1" parent="s87ekahSDVwL-AXoMf6T-81" source="s87ekahSDVwL-AXoMf6T-111" target="s87ekahSDVwL-AXoMf6T-76" edge="1">
          <mxGeometry y="20" relative="1" as="geometry">
            <mxPoint as="offset" />
          </mxGeometry>
        </mxCell>
        <mxCell id="s87ekahSDVwL-AXoMf6T-115" value="No" style="edgeStyle=orthogonalEdgeStyle;rounded=0;orthogonalLoop=1;jettySize=auto;html=1;exitX=1;exitY=0.5;exitDx=0;exitDy=0;exitPerimeter=0;fontSize=14;strokeWidth=2;fontStyle=1" parent="s87ekahSDVwL-AXoMf6T-81" source="s87ekahSDVwL-AXoMf6T-111" target="s87ekahSDVwL-AXoMf6T-112" edge="1">
          <mxGeometry x="-0.0909" y="15" relative="1" as="geometry">
            <mxPoint x="-1" as="offset" />
          </mxGeometry>
        </mxCell>
        <mxCell id="s87ekahSDVwL-AXoMf6T-111" value="&lt;font style=&quot;font-size: 13px&quot;&gt;CTFfind metadata exists?&lt;/font&gt;" style="strokeWidth=2;html=1;shape=mxgraph.flowchart.decision;whiteSpace=wrap;fillColor=#ffe6cc;strokeColor=#d79b00;" parent="s87ekahSDVwL-AXoMf6T-81" vertex="1">
          <mxGeometry x="380" y="260" width="240" height="70" as="geometry" />
        </mxCell>
        <mxCell id="s87ekahSDVwL-AXoMf6T-173" style="edgeStyle=orthogonalEdgeStyle;rounded=0;orthogonalLoop=1;jettySize=auto;html=1;exitX=0.5;exitY=1;exitDx=0;exitDy=0;fontFamily=Verdana;fontSize=20;fontColor=#000000;strokeWidth=2;" parent="s87ekahSDVwL-AXoMf6T-81" source="s87ekahSDVwL-AXoMf6T-76" target="s87ekahSDVwL-AXoMf6T-168" edge="1">
          <mxGeometry relative="1" as="geometry" />
        </mxCell>
        <mxCell id="s87ekahSDVwL-AXoMf6T-76" value="&lt;font style=&quot;font-size: 13px&quot;&gt;Read CTFfind metadata&lt;/font&gt;" style="shape=parallelogram;html=1;strokeWidth=2;perimeter=parallelogramPerimeter;whiteSpace=wrap;arcSize=12;size=0.23;shadow=0;glass=0;fontSize=16;fillColor=#ffe6cc;strokeColor=#d79b00;" parent="s87ekahSDVwL-AXoMf6T-81" vertex="1">
          <mxGeometry x="380" y="405" width="240" height="40" as="geometry" />
        </mxCell>
        <mxCell id="s87ekahSDVwL-AXoMf6T-118" style="edgeStyle=orthogonalEdgeStyle;rounded=0;orthogonalLoop=1;jettySize=auto;html=1;exitX=0.5;exitY=1;exitDx=0;exitDy=0;dashed=1;fontSize=14;strokeWidth=2;" parent="s87ekahSDVwL-AXoMf6T-81" source="s87ekahSDVwL-AXoMf6T-112" target="s87ekahSDVwL-AXoMf6T-116" edge="1">
          <mxGeometry relative="1" as="geometry" />
        </mxCell>
        <mxCell id="s87ekahSDVwL-AXoMf6T-112" value="Create CTFfind &lt;br&gt;metadata" style="whiteSpace=wrap;html=1;absoluteArcSize=1;arcSize=14;strokeWidth=2;fontSize=13;fillColor=#ffe6cc;strokeColor=#d79b00;" parent="s87ekahSDVwL-AXoMf6T-81" vertex="1">
          <mxGeometry x="790" y="275" width="160" height="40" as="geometry" />
        </mxCell>
        <mxCell id="s87ekahSDVwL-AXoMf6T-117" style="edgeStyle=orthogonalEdgeStyle;rounded=0;orthogonalLoop=1;jettySize=auto;html=1;exitX=0;exitY=0.5;exitDx=0;exitDy=0;exitPerimeter=0;entryX=1;entryY=0.5;entryDx=0;entryDy=0;fontSize=14;strokeWidth=2;dashed=1;" parent="s87ekahSDVwL-AXoMf6T-81" source="s87ekahSDVwL-AXoMf6T-116" target="s87ekahSDVwL-AXoMf6T-76" edge="1">
          <mxGeometry relative="1" as="geometry">
            <Array as="points">
              <mxPoint x="760" y="425" />
            </Array>
          </mxGeometry>
        </mxCell>
        <mxCell id="s87ekahSDVwL-AXoMf6T-116" value="CTFfind&lt;br style=&quot;font-size: 20px;&quot;&gt;metadata" style="strokeWidth=2;html=1;shape=mxgraph.flowchart.direct_data;whiteSpace=wrap;fillColor=#f0a30a;strokeColor=#BD7000;fontSize=20;fontStyle=1;fontColor=#000000;" parent="s87ekahSDVwL-AXoMf6T-81" vertex="1">
          <mxGeometry x="800" y="390" width="140" height="70" as="geometry" />
        </mxCell>
        <mxCell id="s87ekahSDVwL-AXoMf6T-176" style="edgeStyle=orthogonalEdgeStyle;rounded=0;orthogonalLoop=1;jettySize=auto;html=1;exitX=1;exitY=0.5;exitDx=0;exitDy=0;fontFamily=Verdana;fontSize=14;fontColor=#000000;strokeWidth=2;dashed=1;" parent="s87ekahSDVwL-AXoMf6T-81" source="s87ekahSDVwL-AXoMf6T-123" target="s87ekahSDVwL-AXoMf6T-116" edge="1">
          <mxGeometry relative="1" as="geometry" />
        </mxCell>
        <mxCell id="Y5SJRaH_rNokmWIUNs9c-7" style="edgeStyle=orthogonalEdgeStyle;rounded=0;jumpStyle=arc;jumpSize=33;orthogonalLoop=1;jettySize=auto;html=1;exitX=0.5;exitY=1;exitDx=0;exitDy=0;fontSize=20;strokeWidth=2;" edge="1" parent="s87ekahSDVwL-AXoMf6T-81" source="s87ekahSDVwL-AXoMf6T-123" target="s87ekahSDVwL-AXoMf6T-82">
          <mxGeometry relative="1" as="geometry" />
        </mxCell>
        <mxCell id="s87ekahSDVwL-AXoMf6T-123" value="Uodate CTFfind metadata" style="whiteSpace=wrap;html=1;absoluteArcSize=1;arcSize=14;strokeWidth=2;fontSize=13;fillColor=#ffe6cc;strokeColor=#d79b00;" parent="s87ekahSDVwL-AXoMf6T-81" vertex="1">
          <mxGeometry x="410" y="870" width="180" height="40" as="geometry" />
        </mxCell>
        <mxCell id="Y5SJRaH_rNokmWIUNs9c-6" style="edgeStyle=orthogonalEdgeStyle;rounded=0;jumpStyle=arc;jumpSize=33;orthogonalLoop=1;jettySize=auto;html=1;entryX=0.5;entryY=1;entryDx=0;entryDy=0;entryPerimeter=0;fontSize=20;strokeWidth=2;" edge="1" parent="s87ekahSDVwL-AXoMf6T-81" source="s87ekahSDVwL-AXoMf6T-78" target="s87ekahSDVwL-AXoMf6T-170">
          <mxGeometry relative="1" as="geometry" />
        </mxCell>
        <mxCell id="s87ekahSDVwL-AXoMf6T-78" value="Run&lt;b&gt;&amp;nbsp;CTFfind&lt;/b&gt;" style="whiteSpace=wrap;html=1;absoluteArcSize=1;arcSize=14;strokeWidth=2;fontSize=13;fillColor=#ffe6cc;strokeColor=#d79b00;" parent="s87ekahSDVwL-AXoMf6T-81" vertex="1">
          <mxGeometry x="410" y="740" width="180" height="40" as="geometry" />
        </mxCell>
        <mxCell id="s87ekahSDVwL-AXoMf6T-121" style="edgeStyle=orthogonalEdgeStyle;rounded=0;orthogonalLoop=1;jettySize=auto;html=1;exitX=1;exitY=0.5;exitDx=0;exitDy=0;dashed=1;fontSize=14;strokeWidth=2;entryX=0;entryY=0.5;entryDx=0;entryDy=0;entryPerimeter=0;" parent="s87ekahSDVwL-AXoMf6T-81" source="s87ekahSDVwL-AXoMf6T-78" target="Y5SJRaH_rNokmWIUNs9c-2" edge="1">
          <mxGeometry relative="1" as="geometry">
            <mxPoint x="690" y="760" as="targetPoint" />
          </mxGeometry>
        </mxCell>
        <mxCell id="s87ekahSDVwL-AXoMf6T-174" value="No" style="edgeStyle=orthogonalEdgeStyle;rounded=0;orthogonalLoop=1;jettySize=auto;html=1;exitX=0.5;exitY=1;exitDx=0;exitDy=0;exitPerimeter=0;fontFamily=Verdana;fontSize=14;fontColor=#000000;strokeWidth=2;fontStyle=1" parent="s87ekahSDVwL-AXoMf6T-81" source="s87ekahSDVwL-AXoMf6T-168" target="s87ekahSDVwL-AXoMf6T-78" edge="1">
          <mxGeometry x="-0.5" y="20" relative="1" as="geometry">
            <mxPoint as="offset" />
          </mxGeometry>
        </mxCell>
        <mxCell id="s87ekahSDVwL-AXoMf6T-168" value="&lt;span style=&quot;font-size: 13px&quot;&gt;Current set already &lt;br&gt;&quot;CTFfound&quot;?&lt;/span&gt;" style="strokeWidth=2;html=1;shape=mxgraph.flowchart.decision;whiteSpace=wrap;fillColor=#ffe6cc;strokeColor=#d79b00;" parent="s87ekahSDVwL-AXoMf6T-81" vertex="1">
          <mxGeometry x="380" y="590" width="240" height="70" as="geometry" />
        </mxCell>
        <mxCell id="s87ekahSDVwL-AXoMf6T-175" value="Yes" style="edgeStyle=orthogonalEdgeStyle;rounded=0;orthogonalLoop=1;jettySize=auto;html=1;exitX=0;exitY=0.5;exitDx=0;exitDy=0;exitPerimeter=0;entryX=0;entryY=0.5;entryDx=0;entryDy=0;fontFamily=Verdana;fontSize=14;fontColor=#000000;strokeWidth=2;fontStyle=1" parent="s87ekahSDVwL-AXoMf6T-81" source="s87ekahSDVwL-AXoMf6T-170" target="s87ekahSDVwL-AXoMf6T-123" edge="1">
          <mxGeometry x="-0.8895" y="20" relative="1" as="geometry">
            <mxPoint as="offset" />
          </mxGeometry>
        </mxCell>
        <mxCell id="s87ekahSDVwL-AXoMf6T-170" value="&lt;span style=&quot;font-size: 13px&quot;&gt;Current set == &lt;br&gt;final set in metadata?&lt;/span&gt;" style="strokeWidth=2;html=1;shape=mxgraph.flowchart.decision;whiteSpace=wrap;fillColor=#ffe6cc;strokeColor=#d79b00;" parent="s87ekahSDVwL-AXoMf6T-81" vertex="1">
          <mxGeometry x="70" y="590" width="240" height="70" as="geometry" />
        </mxCell>
        <mxCell id="s87ekahSDVwL-AXoMf6T-167" value="Yes" style="edgeStyle=orthogonalEdgeStyle;rounded=0;orthogonalLoop=1;jettySize=auto;html=1;exitX=0;exitY=0.5;exitDx=0;exitDy=0;exitPerimeter=0;fontSize=14;strokeWidth=2;fontStyle=1" parent="s87ekahSDVwL-AXoMf6T-81" source="s87ekahSDVwL-AXoMf6T-168" target="s87ekahSDVwL-AXoMf6T-170" edge="1">
          <mxGeometry x="-0.4286" y="-15" relative="1" as="geometry">
            <mxPoint as="offset" />
          </mxGeometry>
        </mxCell>
        <mxCell id="s87ekahSDVwL-AXoMf6T-171" value="Set # = Set # + 1" style="strokeWidth=2;html=1;shape=mxgraph.flowchart.loop_limit;whiteSpace=wrap;fontSize=14;fillColor=#ffe6cc;strokeColor=#d79b00;" parent="s87ekahSDVwL-AXoMf6T-81" vertex="1">
          <mxGeometry x="120" y="490" width="140" height="45" as="geometry" />
        </mxCell>
        <mxCell id="s87ekahSDVwL-AXoMf6T-169" value="No" style="edgeStyle=orthogonalEdgeStyle;rounded=0;orthogonalLoop=1;jettySize=auto;html=1;exitX=0.5;exitY=0;exitDx=0;exitDy=0;exitPerimeter=0;fontSize=14;strokeWidth=2;fontStyle=1" parent="s87ekahSDVwL-AXoMf6T-81" source="s87ekahSDVwL-AXoMf6T-170" target="s87ekahSDVwL-AXoMf6T-171" edge="1">
          <mxGeometry x="0.0909" relative="1" as="geometry">
            <mxPoint as="offset" />
          </mxGeometry>
        </mxCell>
        <mxCell id="s87ekahSDVwL-AXoMf6T-172" style="edgeStyle=orthogonalEdgeStyle;rounded=0;orthogonalLoop=1;jettySize=auto;html=1;exitX=1;exitY=0.5;exitDx=0;exitDy=0;exitPerimeter=0;fontSize=14;strokeWidth=2;entryX=0.5;entryY=0;entryDx=0;entryDy=0;entryPerimeter=0;" parent="s87ekahSDVwL-AXoMf6T-81" source="s87ekahSDVwL-AXoMf6T-171" target="s87ekahSDVwL-AXoMf6T-168" edge="1">
          <mxGeometry relative="1" as="geometry">
            <mxPoint x="110" y="772.8333333333335" as="targetPoint" />
          </mxGeometry>
        </mxCell>
        <mxCell id="Y5SJRaH_rNokmWIUNs9c-2" value="&lt;span style=&quot;font-family: &amp;#34;helvetica&amp;#34;&quot;&gt;&quot;CTFfound&quot;&lt;br&gt;Images&lt;/span&gt;" style="strokeWidth=2;html=1;shape=mxgraph.flowchart.multi-document;whiteSpace=wrap;fontFamily=Verdana;fontSize=20;fontStyle=1" vertex="1" parent="s87ekahSDVwL-AXoMf6T-81">
          <mxGeometry x="640" y="690" width="185" height="140" as="geometry" />
        </mxCell>
        <mxCell id="s87ekahSDVwL-AXoMf6T-265" style="edgeStyle=orthogonalEdgeStyle;rounded=0;jumpStyle=arc;jumpSize=45;orthogonalLoop=1;jettySize=auto;html=1;exitX=0.5;exitY=0.88;exitDx=0;exitDy=0;exitPerimeter=0;entryX=0.5;entryY=0;entryDx=0;entryDy=0;dashed=1;fontFamily=Verdana;fontSize=33;fontColor=#000000;strokeWidth=10;fillColor=#60a917;strokeColor=#2D7600;dashPattern=1 1;startSize=13;" parent="s87ekahSDVwL-AXoMf6T-1" source="s87ekahSDVwL-AXoMf6T-266" target="s87ekahSDVwL-AXoMf6T-94" edge="1">
          <mxGeometry relative="1" as="geometry">
            <mxPoint x="1350.000000000001" y="-610" as="sourcePoint" />
          </mxGeometry>
        </mxCell>
        <mxCell id="s87ekahSDVwL-AXoMf6T-119" style="edgeStyle=orthogonalEdgeStyle;rounded=0;orthogonalLoop=1;jettySize=auto;html=1;exitX=1;exitY=0.5;exitDx=0;exitDy=0;exitPerimeter=0;entryX=0.5;entryY=0;entryDx=0;entryDy=0;dashed=1;fontSize=14;strokeWidth=6;fillColor=#fa6800;strokeColor=#C73500;jumpStyle=arc;jumpSize=45;dashPattern=1 1;" parent="s87ekahSDVwL-AXoMf6T-1" source="s87ekahSDVwL-AXoMf6T-92" target="s87ekahSDVwL-AXoMf6T-112" edge="1">
          <mxGeometry relative="1" as="geometry">
            <Array as="points">
              <mxPoint x="1480" y="90" />
              <mxPoint x="1480" y="-330" />
              <mxPoint x="2390" y="-330" />
            </Array>
          </mxGeometry>
        </mxCell>
        <mxCell id="s87ekahSDVwL-AXoMf6T-120" style="edgeStyle=orthogonalEdgeStyle;rounded=0;orthogonalLoop=1;jettySize=auto;html=1;exitX=1;exitY=0.5;exitDx=0;exitDy=0;exitPerimeter=0;dashed=1;fontSize=14;strokeWidth=6;entryX=0.5;entryY=0;entryDx=0;entryDy=0;fillColor=#fa6800;strokeColor=#C73500;jumpStyle=arc;jumpSize=45;dashPattern=1 1;" parent="s87ekahSDVwL-AXoMf6T-1" source="Y5SJRaH_rNokmWIUNs9c-0" target="s87ekahSDVwL-AXoMf6T-112" edge="1">
          <mxGeometry relative="1" as="geometry">
            <mxPoint x="2020" y="-40" as="targetPoint" />
            <Array as="points">
              <mxPoint x="1480" y="480" />
              <mxPoint x="1480" y="-330" />
              <mxPoint x="2390" y="-330" />
            </Array>
            <mxPoint x="1310" y="480" as="sourcePoint" />
          </mxGeometry>
        </mxCell>
        <mxCell id="s87ekahSDVwL-AXoMf6T-151" style="edgeStyle=orthogonalEdgeStyle;rounded=0;orthogonalLoop=1;jettySize=auto;html=1;entryX=0.5;entryY=0;entryDx=0;entryDy=0;fontSize=14;strokeWidth=6;dashed=1;fillColor=#d80073;strokeColor=#A50040;jumpStyle=arc;jumpSize=45;dashPattern=1 1;" parent="s87ekahSDVwL-AXoMf6T-1" source="Y5SJRaH_rNokmWIUNs9c-2" target="s87ekahSDVwL-AXoMf6T-147" edge="1">
          <mxGeometry relative="1" as="geometry">
            <Array as="points">
              <mxPoint x="2520" y="500" />
              <mxPoint x="2520" y="-330" />
              <mxPoint x="3450" y="-330" />
            </Array>
            <mxPoint x="2340" y="500" as="sourcePoint" />
          </mxGeometry>
        </mxCell>
        <mxCell id="s87ekahSDVwL-AXoMf6T-177" style="edgeStyle=orthogonalEdgeStyle;rounded=0;orthogonalLoop=1;jettySize=auto;html=1;exitX=1;exitY=0.5;exitDx=0;exitDy=0;exitPerimeter=0;entryX=0.5;entryY=0;entryDx=0;entryDy=0;dashed=1;fontFamily=Verdana;fontSize=14;fontColor=#000000;strokeWidth=6;fillColor=#d80073;strokeColor=#A50040;jumpStyle=arc;jumpSize=45;dashPattern=1 1;" parent="s87ekahSDVwL-AXoMf6T-1" source="s87ekahSDVwL-AXoMf6T-116" target="s87ekahSDVwL-AXoMf6T-147" edge="1">
          <mxGeometry relative="1" as="geometry">
            <Array as="points">
              <mxPoint x="2520" y="165" />
              <mxPoint x="2520" y="-330" />
              <mxPoint x="3450" y="-330" />
            </Array>
          </mxGeometry>
        </mxCell>
        <mxCell id="s87ekahSDVwL-AXoMf6T-262" style="edgeStyle=orthogonalEdgeStyle;shape=flexArrow;rounded=0;orthogonalLoop=1;jettySize=auto;html=1;exitX=0.5;exitY=1;exitDx=0;exitDy=0;entryX=1;entryY=0.5;entryDx=0;entryDy=0;entryPerimeter=0;fontFamily=Verdana;fontSize=33;fontColor=#000000;strokeWidth=4;fillColor=#6a00ff;strokeColor=#3700CC;" parent="s87ekahSDVwL-AXoMf6T-1" source="s87ekahSDVwL-AXoMf6T-205" target="s87ekahSDVwL-AXoMf6T-258" edge="1">
          <mxGeometry relative="1" as="geometry" />
        </mxCell>
        <mxCell id="s87ekahSDVwL-AXoMf6T-205" value="OTTERec.reconstruct" style="swimlane;shadow=0;glass=1;fontSize=30;fillColor=#dae8fc;strokeColor=#6c8ebf;strokeWidth=5;swimlaneLine=0;" parent="s87ekahSDVwL-AXoMf6T-1" vertex="1">
          <mxGeometry x="3640" y="-260" width="1000" height="1080" as="geometry" />
        </mxCell>
        <mxCell id="s87ekahSDVwL-AXoMf6T-206" value="&lt;font style=&quot;font-size: 13px&quot;&gt;Read BatchTomo_align&lt;br&gt;metadata&lt;br&gt;&lt;/font&gt;" style="shape=parallelogram;html=1;strokeWidth=2;perimeter=parallelogramPerimeter;whiteSpace=wrap;arcSize=12;size=0.23;shadow=0;glass=0;fontSize=16;fillColor=#e1d5e7;strokeColor=#9673a6;" parent="s87ekahSDVwL-AXoMf6T-205" vertex="1">
          <mxGeometry x="360" y="400" width="240" height="40" as="geometry" />
        </mxCell>
        <mxCell id="s87ekahSDVwL-AXoMf6T-207" style="edgeStyle=orthogonalEdgeStyle;orthogonalLoop=1;jettySize=auto;html=1;exitX=0.5;exitY=1;exitDx=0;exitDy=0;fontSize=16;strokeColor=#000000;strokeWidth=2;entryX=0.5;entryY=0;entryDx=0;entryDy=0;entryPerimeter=0;" parent="s87ekahSDVwL-AXoMf6T-205" source="s87ekahSDVwL-AXoMf6T-206" target="s87ekahSDVwL-AXoMf6T-252" edge="1">
          <mxGeometry relative="1" as="geometry">
            <mxPoint x="480" y="560" as="targetPoint" />
          </mxGeometry>
        </mxCell>
        <mxCell id="s87ekahSDVwL-AXoMf6T-208" style="edgeStyle=orthogonalEdgeStyle;rounded=0;orthogonalLoop=1;jettySize=auto;html=1;exitX=0.5;exitY=1;exitDx=0;exitDy=0;fontSize=14;strokeWidth=2;" parent="s87ekahSDVwL-AXoMf6T-205" source="s87ekahSDVwL-AXoMf6T-209" target="s87ekahSDVwL-AXoMf6T-214" edge="1">
          <mxGeometry relative="1" as="geometry" />
        </mxCell>
        <mxCell id="s87ekahSDVwL-AXoMf6T-209" value="&lt;font style=&quot;font-size: 13px&quot;&gt;Read BatchTomo_align YAML&lt;/font&gt;" style="shape=parallelogram;html=1;strokeWidth=2;perimeter=parallelogramPerimeter;whiteSpace=wrap;arcSize=12;size=0.23;shadow=0;glass=0;fontSize=16;fillColor=#e1d5e7;strokeColor=#9673a6;" parent="s87ekahSDVwL-AXoMf6T-205" vertex="1">
          <mxGeometry x="340" y="160" width="280" height="40" as="geometry" />
        </mxCell>
        <mxCell id="s87ekahSDVwL-AXoMf6T-211" style="edgeStyle=orthogonalEdgeStyle;orthogonalLoop=1;jettySize=auto;html=1;exitX=0.5;exitY=1;exitDx=0;exitDy=0;exitPerimeter=0;fontSize=16;strokeColor=#000000;strokeWidth=2;" parent="s87ekahSDVwL-AXoMf6T-205" target="s87ekahSDVwL-AXoMf6T-209" edge="1">
          <mxGeometry relative="1" as="geometry">
            <mxPoint x="480" y="90" as="sourcePoint" />
          </mxGeometry>
        </mxCell>
        <mxCell id="s87ekahSDVwL-AXoMf6T-212" value="Yes" style="edgeStyle=orthogonalEdgeStyle;rounded=0;orthogonalLoop=1;jettySize=auto;html=1;exitX=0.5;exitY=1;exitDx=0;exitDy=0;exitPerimeter=0;fontSize=14;strokeWidth=2;fontStyle=1" parent="s87ekahSDVwL-AXoMf6T-205" source="s87ekahSDVwL-AXoMf6T-214" target="s87ekahSDVwL-AXoMf6T-206" edge="1">
          <mxGeometry x="-0.0769" y="20" relative="1" as="geometry">
            <mxPoint as="offset" />
          </mxGeometry>
        </mxCell>
        <mxCell id="s87ekahSDVwL-AXoMf6T-213" value="No" style="edgeStyle=orthogonalEdgeStyle;rounded=0;orthogonalLoop=1;jettySize=auto;html=1;fontSize=14;strokeWidth=2;fontStyle=1" parent="s87ekahSDVwL-AXoMf6T-205" source="s87ekahSDVwL-AXoMf6T-214" target="s87ekahSDVwL-AXoMf6T-216" edge="1">
          <mxGeometry y="15" relative="1" as="geometry">
            <mxPoint as="offset" />
          </mxGeometry>
        </mxCell>
        <mxCell id="s87ekahSDVwL-AXoMf6T-214" value="&lt;font style=&quot;font-size: 13px&quot;&gt;BatchTomo_align metadata &lt;br&gt;exists?&lt;/font&gt;" style="strokeWidth=2;html=1;shape=mxgraph.flowchart.decision;whiteSpace=wrap;fillColor=#e1d5e7;strokeColor=#9673a6;" parent="s87ekahSDVwL-AXoMf6T-205" vertex="1">
          <mxGeometry x="360" y="260" width="240" height="70" as="geometry" />
        </mxCell>
        <mxCell id="s87ekahSDVwL-AXoMf6T-215" style="edgeStyle=orthogonalEdgeStyle;rounded=0;orthogonalLoop=1;jettySize=auto;html=1;dashed=1;fontSize=14;strokeWidth=2;entryX=0.525;entryY=-0.016;entryDx=0;entryDy=0;entryPerimeter=0;" parent="s87ekahSDVwL-AXoMf6T-205" source="s87ekahSDVwL-AXoMf6T-216" target="s87ekahSDVwL-AXoMf6T-250" edge="1">
          <mxGeometry relative="1" as="geometry" />
        </mxCell>
        <mxCell id="s87ekahSDVwL-AXoMf6T-216" value="Create BatchTomo_align&lt;br&gt;metadata" style="whiteSpace=wrap;html=1;absoluteArcSize=1;arcSize=14;strokeWidth=2;fontSize=13;fillColor=#e1d5e7;strokeColor=#9673a6;" parent="s87ekahSDVwL-AXoMf6T-205" vertex="1">
          <mxGeometry x="810" y="275" width="160" height="40" as="geometry" />
        </mxCell>
        <mxCell id="s87ekahSDVwL-AXoMf6T-217" style="edgeStyle=orthogonalEdgeStyle;rounded=0;orthogonalLoop=1;jettySize=auto;html=1;exitX=0;exitY=0.5;exitDx=0;exitDy=0;exitPerimeter=0;dashed=1;fontSize=14;strokeWidth=2;" parent="s87ekahSDVwL-AXoMf6T-205" source="s87ekahSDVwL-AXoMf6T-218" target="s87ekahSDVwL-AXoMf6T-206" edge="1">
          <mxGeometry relative="1" as="geometry" />
        </mxCell>
        <mxCell id="s87ekahSDVwL-AXoMf6T-218" value="BatchTomo_align&lt;br style=&quot;font-size: 13px&quot;&gt;metadata" style="strokeWidth=2;html=1;shape=mxgraph.flowchart.direct_data;whiteSpace=wrap;fillColor=#e1d5e7;strokeColor=#9673a6;fontSize=13;fontStyle=1" parent="s87ekahSDVwL-AXoMf6T-205" vertex="1">
          <mxGeometry x="800" y="390" width="180" height="60" as="geometry" />
        </mxCell>
        <mxCell id="s87ekahSDVwL-AXoMf6T-222" value="No" style="edgeStyle=orthogonalEdgeStyle;rounded=0;orthogonalLoop=1;jettySize=auto;html=1;fontFamily=Verdana;fontSize=14;fontColor=#000000;strokeWidth=2;fontStyle=1" parent="s87ekahSDVwL-AXoMf6T-205" source="s87ekahSDVwL-AXoMf6T-252" target="s87ekahSDVwL-AXoMf6T-233" edge="1">
          <mxGeometry x="-0.8095" y="20" relative="1" as="geometry">
            <mxPoint x="480" y="629.9999999999995" as="sourcePoint" />
            <mxPoint x="480" y="680" as="targetPoint" />
            <mxPoint y="-1" as="offset" />
          </mxGeometry>
        </mxCell>
        <mxCell id="s87ekahSDVwL-AXoMf6T-225" value="Yes" style="edgeStyle=orthogonalEdgeStyle;rounded=0;orthogonalLoop=1;jettySize=auto;html=1;exitX=0;exitY=0.5;exitDx=0;exitDy=0;exitPerimeter=0;fontSize=14;strokeWidth=2;fontStyle=1;entryX=1;entryY=0.5;entryDx=0;entryDy=0;entryPerimeter=0;" parent="s87ekahSDVwL-AXoMf6T-205" source="s87ekahSDVwL-AXoMf6T-252" target="s87ekahSDVwL-AXoMf6T-251" edge="1">
          <mxGeometry x="-0.4286" y="-15" relative="1" as="geometry">
            <mxPoint as="offset" />
            <mxPoint x="360" y="594.9999999999995" as="sourcePoint" />
            <mxPoint x="290" y="594.9999999999995" as="targetPoint" />
          </mxGeometry>
        </mxCell>
        <mxCell id="s87ekahSDVwL-AXoMf6T-227" value="No" style="edgeStyle=orthogonalEdgeStyle;rounded=0;orthogonalLoop=1;jettySize=auto;html=1;exitX=0.5;exitY=0;exitDx=0;exitDy=0;exitPerimeter=0;fontSize=14;strokeWidth=2;fontStyle=1" parent="s87ekahSDVwL-AXoMf6T-205" source="s87ekahSDVwL-AXoMf6T-251" edge="1">
          <mxGeometry x="0.0909" relative="1" as="geometry">
            <mxPoint as="offset" />
            <mxPoint x="170" y="560" as="sourcePoint" />
            <mxPoint x="170" y="505" as="targetPoint" />
          </mxGeometry>
        </mxCell>
        <mxCell id="s87ekahSDVwL-AXoMf6T-228" style="edgeStyle=orthogonalEdgeStyle;rounded=0;orthogonalLoop=1;jettySize=auto;html=1;fontSize=14;strokeWidth=2;" parent="s87ekahSDVwL-AXoMf6T-205" source="s87ekahSDVwL-AXoMf6T-253" target="s87ekahSDVwL-AXoMf6T-252" edge="1">
          <mxGeometry relative="1" as="geometry">
            <mxPoint x="480" y="560" as="targetPoint" />
            <mxPoint x="240" y="482.5" as="sourcePoint" />
          </mxGeometry>
        </mxCell>
        <mxCell id="s87ekahSDVwL-AXoMf6T-232" style="edgeStyle=orthogonalEdgeStyle;rounded=0;orthogonalLoop=1;jettySize=auto;html=1;exitX=0;exitY=0.5;exitDx=0;exitDy=0;fontFamily=Verdana;fontSize=20;fontColor=#000000;strokeWidth=2;entryX=0.5;entryY=1;entryDx=0;entryDy=0;entryPerimeter=0;" parent="s87ekahSDVwL-AXoMf6T-205" source="s87ekahSDVwL-AXoMf6T-233" target="s87ekahSDVwL-AXoMf6T-251" edge="1">
          <mxGeometry relative="1" as="geometry" />
        </mxCell>
        <mxCell id="s87ekahSDVwL-AXoMf6T-233" value="Run BatchTomo for&amp;nbsp;&lt;br&gt;reconstruction" style="whiteSpace=wrap;html=1;absoluteArcSize=1;arcSize=14;strokeWidth=2;fontSize=13;fillColor=#dae8fc;strokeColor=#6c8ebf;" parent="s87ekahSDVwL-AXoMf6T-205" vertex="1">
          <mxGeometry x="390" y="755" width="180" height="40" as="geometry" />
        </mxCell>
        <mxCell id="s87ekahSDVwL-AXoMf6T-236" style="edgeStyle=orthogonalEdgeStyle;rounded=0;orthogonalLoop=1;jettySize=auto;html=1;exitX=1;exitY=0.5;exitDx=0;exitDy=0;fontFamily=Verdana;fontSize=20;fontColor=#000000;strokeWidth=2;dashed=1;jumpStyle=arc;jumpSize=30;" parent="s87ekahSDVwL-AXoMf6T-205" source="s87ekahSDVwL-AXoMf6T-237" target="s87ekahSDVwL-AXoMf6T-250" edge="1">
          <mxGeometry relative="1" as="geometry">
            <Array as="points">
              <mxPoint x="890" y="900" />
            </Array>
          </mxGeometry>
        </mxCell>
        <mxCell id="s87ekahSDVwL-AXoMf6T-276" style="edgeStyle=orthogonalEdgeStyle;rounded=0;jumpStyle=arc;jumpSize=25;orthogonalLoop=1;jettySize=auto;html=1;exitX=0.5;exitY=1;exitDx=0;exitDy=0;fontFamily=Verdana;fontSize=14;fontColor=#000000;endArrow=block;endFill=1;startSize=17;strokeWidth=2;entryX=0.5;entryY=0;entryDx=0;entryDy=0;entryPerimeter=0;" parent="s87ekahSDVwL-AXoMf6T-205" source="s87ekahSDVwL-AXoMf6T-237" target="s87ekahSDVwL-AXoMf6T-238" edge="1">
          <mxGeometry relative="1" as="geometry" />
        </mxCell>
        <mxCell id="s87ekahSDVwL-AXoMf6T-237" value="Update BatchTomo_recon&lt;br&gt;metadata" style="whiteSpace=wrap;html=1;absoluteArcSize=1;arcSize=14;strokeWidth=2;fontSize=13;fillColor=#dae8fc;strokeColor=#6c8ebf;" parent="s87ekahSDVwL-AXoMf6T-205" vertex="1">
          <mxGeometry x="400" y="880" width="160" height="40" as="geometry" />
        </mxCell>
        <mxCell id="s87ekahSDVwL-AXoMf6T-238" value="&lt;b&gt;End&lt;/b&gt;" style="strokeWidth=2;html=1;shape=mxgraph.flowchart.terminator;whiteSpace=wrap;shadow=0;glass=0;fontSize=16;fillColor=#dae8fc;strokeColor=#6c8ebf;" parent="s87ekahSDVwL-AXoMf6T-205" vertex="1">
          <mxGeometry x="430" y="1010" width="100" height="60" as="geometry" />
        </mxCell>
        <mxCell id="s87ekahSDVwL-AXoMf6T-240" value="&lt;font style=&quot;font-size: 13px&quot;&gt;Read BatchTomo_align YAML&lt;/font&gt;" style="shape=parallelogram;html=1;strokeWidth=2;perimeter=parallelogramPerimeter;whiteSpace=wrap;arcSize=12;size=0.23;shadow=0;glass=0;fontSize=16;fillColor=#e1d5e7;strokeColor=#9673a6;" parent="s87ekahSDVwL-AXoMf6T-205" vertex="1">
          <mxGeometry x="340" y="160" width="280" height="40" as="geometry" />
        </mxCell>
        <mxCell id="s87ekahSDVwL-AXoMf6T-241" value="&lt;font style=&quot;font-size: 13px&quot;&gt;BatchTomo_align metadata &lt;br&gt;exists?&lt;/font&gt;" style="strokeWidth=2;html=1;shape=mxgraph.flowchart.decision;whiteSpace=wrap;fillColor=#e1d5e7;strokeColor=#9673a6;" parent="s87ekahSDVwL-AXoMf6T-205" vertex="1">
          <mxGeometry x="360" y="260" width="240" height="70" as="geometry" />
        </mxCell>
        <mxCell id="s87ekahSDVwL-AXoMf6T-242" value="&lt;font style=&quot;font-size: 13px&quot;&gt;Read BatchTomo_align&lt;br&gt;metadata&lt;br&gt;&lt;/font&gt;" style="shape=parallelogram;html=1;strokeWidth=2;perimeter=parallelogramPerimeter;whiteSpace=wrap;arcSize=12;size=0.23;shadow=0;glass=0;fontSize=16;fillColor=#e1d5e7;strokeColor=#9673a6;" parent="s87ekahSDVwL-AXoMf6T-205" vertex="1">
          <mxGeometry x="360" y="400" width="240" height="40" as="geometry" />
        </mxCell>
        <mxCell id="s87ekahSDVwL-AXoMf6T-243" value="Create BatchTomo_align&lt;br&gt;metadata" style="whiteSpace=wrap;html=1;absoluteArcSize=1;arcSize=14;strokeWidth=2;fontSize=13;fillColor=#e1d5e7;strokeColor=#9673a6;" parent="s87ekahSDVwL-AXoMf6T-205" vertex="1">
          <mxGeometry x="810" y="275" width="160" height="40" as="geometry" />
        </mxCell>
        <mxCell id="s87ekahSDVwL-AXoMf6T-244" value="BatchTomo_align&lt;br style=&quot;font-size: 13px&quot;&gt;metadata" style="strokeWidth=2;html=1;shape=mxgraph.flowchart.direct_data;whiteSpace=wrap;fillColor=#e1d5e7;strokeColor=#9673a6;fontSize=13;fontStyle=1" parent="s87ekahSDVwL-AXoMf6T-205" vertex="1">
          <mxGeometry x="800" y="390" width="180" height="60" as="geometry" />
        </mxCell>
        <mxCell id="s87ekahSDVwL-AXoMf6T-245" value="&lt;b&gt;&lt;font style=&quot;font-size: 18px&quot;&gt;Start&lt;/font&gt;&lt;/b&gt;" style="strokeWidth=2;html=1;shape=mxgraph.flowchart.start_1;whiteSpace=wrap;shadow=0;glass=0;fontSize=16;fillColor=#dae8fc;strokeColor=#6c8ebf;" parent="s87ekahSDVwL-AXoMf6T-205" vertex="1">
          <mxGeometry x="430" y="40" width="100" height="60" as="geometry" />
        </mxCell>
        <mxCell id="s87ekahSDVwL-AXoMf6T-246" value="&lt;font style=&quot;font-size: 13px&quot;&gt;Read BatchTomo_recon YAML&lt;/font&gt;" style="shape=parallelogram;html=1;strokeWidth=2;perimeter=parallelogramPerimeter;whiteSpace=wrap;arcSize=12;size=0.23;shadow=0;glass=0;fontSize=16;fillColor=#dae8fc;strokeColor=#6c8ebf;" parent="s87ekahSDVwL-AXoMf6T-205" vertex="1">
          <mxGeometry x="340" y="160" width="280" height="40" as="geometry" />
        </mxCell>
        <mxCell id="s87ekahSDVwL-AXoMf6T-247" value="&lt;font style=&quot;font-size: 13px&quot;&gt;BatchTomo_recon metadata &lt;br&gt;exists?&lt;/font&gt;" style="strokeWidth=2;html=1;shape=mxgraph.flowchart.decision;whiteSpace=wrap;fillColor=#dae8fc;strokeColor=#6c8ebf;" parent="s87ekahSDVwL-AXoMf6T-205" vertex="1">
          <mxGeometry x="360" y="260" width="240" height="70" as="geometry" />
        </mxCell>
        <mxCell id="s87ekahSDVwL-AXoMf6T-248" value="&lt;font style=&quot;font-size: 13px&quot;&gt;Read BatchTomo_recon&lt;br&gt;metadata&lt;br&gt;&lt;/font&gt;" style="shape=parallelogram;html=1;strokeWidth=2;perimeter=parallelogramPerimeter;whiteSpace=wrap;arcSize=12;size=0.23;shadow=0;glass=0;fontSize=16;fillColor=#dae8fc;strokeColor=#6c8ebf;" parent="s87ekahSDVwL-AXoMf6T-205" vertex="1">
          <mxGeometry x="360" y="400" width="240" height="40" as="geometry" />
        </mxCell>
        <mxCell id="s87ekahSDVwL-AXoMf6T-249" value="Create BatchTomo_recon&lt;br&gt;metadata" style="whiteSpace=wrap;html=1;absoluteArcSize=1;arcSize=14;strokeWidth=2;fontSize=13;fillColor=#dae8fc;strokeColor=#6c8ebf;" parent="s87ekahSDVwL-AXoMf6T-205" vertex="1">
          <mxGeometry x="810" y="275" width="160" height="40" as="geometry" />
        </mxCell>
        <mxCell id="s87ekahSDVwL-AXoMf6T-250" value="BatchTomo_recon&lt;br style=&quot;font-size: 20px;&quot;&gt;metadata" style="strokeWidth=2;html=1;shape=mxgraph.flowchart.direct_data;whiteSpace=wrap;fillColor=#0050ef;strokeColor=#001DBC;fontSize=20;fontStyle=1;fontColor=#ffffff;" parent="s87ekahSDVwL-AXoMf6T-205" vertex="1">
          <mxGeometry x="790" y="380" width="190" height="90" as="geometry" />
        </mxCell>
        <mxCell id="s87ekahSDVwL-AXoMf6T-277" value="Yes" style="edgeStyle=orthogonalEdgeStyle;rounded=0;jumpStyle=arc;jumpSize=25;orthogonalLoop=1;jettySize=auto;html=1;exitX=0;exitY=0.5;exitDx=0;exitDy=0;exitPerimeter=0;entryX=0;entryY=0.5;entryDx=0;entryDy=0;entryPerimeter=0;fontFamily=Verdana;fontSize=14;fontColor=#000000;endArrow=block;endFill=1;startSize=17;strokeWidth=2;fontStyle=1" parent="s87ekahSDVwL-AXoMf6T-205" source="s87ekahSDVwL-AXoMf6T-251" target="s87ekahSDVwL-AXoMf6T-237" edge="1">
          <mxGeometry x="-0.8936" y="20" relative="1" as="geometry">
            <mxPoint as="offset" />
          </mxGeometry>
        </mxCell>
        <mxCell id="s87ekahSDVwL-AXoMf6T-251" value="&lt;span style=&quot;font-size: 13px&quot;&gt;Current set == &lt;br&gt;final set in metadata?&lt;/span&gt;" style="strokeWidth=2;html=1;shape=mxgraph.flowchart.decision;whiteSpace=wrap;fillColor=#dae8fc;strokeColor=#6c8ebf;" parent="s87ekahSDVwL-AXoMf6T-205" vertex="1">
          <mxGeometry x="50" y="580" width="240" height="70" as="geometry" />
        </mxCell>
        <mxCell id="s87ekahSDVwL-AXoMf6T-252" value="&lt;span style=&quot;font-size: 13px&quot;&gt;Current set already &lt;br&gt;reconstructed?&lt;/span&gt;" style="strokeWidth=2;html=1;shape=mxgraph.flowchart.decision;whiteSpace=wrap;fillColor=#dae8fc;strokeColor=#6c8ebf;" parent="s87ekahSDVwL-AXoMf6T-205" vertex="1">
          <mxGeometry x="360" y="580" width="240" height="70" as="geometry" />
        </mxCell>
        <mxCell id="s87ekahSDVwL-AXoMf6T-253" value="Set # = Set # + 1" style="strokeWidth=2;html=1;shape=mxgraph.flowchart.loop_limit;whiteSpace=wrap;fontSize=14;fillColor=#dae8fc;strokeColor=#6c8ebf;" parent="s87ekahSDVwL-AXoMf6T-205" vertex="1">
          <mxGeometry x="100" y="460" width="140" height="45" as="geometry" />
        </mxCell>
        <mxCell id="s87ekahSDVwL-AXoMf6T-258" value="End OTTERec2" style="strokeWidth=2;html=1;shape=mxgraph.flowchart.terminator;whiteSpace=wrap;fontFamily=Verdana;fontSize=33;fontColor=#ffffff;fontStyle=1;fillColor=#6a00ff;strokeColor=#3700CC;" parent="s87ekahSDVwL-AXoMf6T-1" vertex="1">
          <mxGeometry x="2390" y="1160" width="300" height="160" as="geometry" />
        </mxCell>
        <mxCell id="s87ekahSDVwL-AXoMf6T-263" style="edgeStyle=orthogonalEdgeStyle;rounded=0;orthogonalLoop=1;jettySize=auto;html=1;exitX=1;exitY=0.5;exitDx=0;exitDy=0;exitPerimeter=0;entryX=0.5;entryY=0;entryDx=0;entryDy=0;fontFamily=Verdana;fontSize=33;fontColor=#000000;strokeWidth=6;dashed=1;fillColor=#1ba1e2;strokeColor=#006EAF;jumpStyle=arc;jumpSize=30;dashPattern=1 1;" parent="s87ekahSDVwL-AXoMf6T-1" source="s87ekahSDVwL-AXoMf6T-148" target="s87ekahSDVwL-AXoMf6T-249" edge="1">
          <mxGeometry relative="1" as="geometry">
            <Array as="points">
              <mxPoint x="3600" y="160" />
              <mxPoint x="3600" y="-330" />
              <mxPoint x="4530" y="-330" />
            </Array>
          </mxGeometry>
        </mxCell>
        <mxCell id="s87ekahSDVwL-AXoMf6T-264" style="edgeStyle=orthogonalEdgeStyle;rounded=0;orthogonalLoop=1;jettySize=auto;html=1;exitX=1;exitY=0.5;exitDx=0;exitDy=0;exitPerimeter=0;entryX=0.5;entryY=0;entryDx=0;entryDy=0;dashed=1;fontFamily=Verdana;fontSize=33;fontColor=#000000;strokeWidth=6;fillColor=#1ba1e2;strokeColor=#006EAF;jumpStyle=arc;jumpSize=30;dashPattern=1 1;" parent="s87ekahSDVwL-AXoMf6T-1" source="s87ekahSDVwL-AXoMf6T-197" target="s87ekahSDVwL-AXoMf6T-249" edge="1">
          <mxGeometry relative="1" as="geometry">
            <Array as="points">
              <mxPoint x="3600" y="570" />
              <mxPoint x="3600" y="-330" />
              <mxPoint x="4530" y="-330" />
            </Array>
          </mxGeometry>
        </mxCell>
        <mxCell id="s87ekahSDVwL-AXoMf6T-234" value="&lt;br style=&quot;font-size: 40px;&quot;&gt;Reconstructed&lt;br style=&quot;font-size: 40px;&quot;&gt;Tomograms" style="strokeWidth=2;html=1;shape=mxgraph.flowchart.database;whiteSpace=wrap;fontSize=40;fontStyle=1;fillColor=#1ba1e2;strokeColor=#006EAF;fontColor=#ffffff;" parent="s87ekahSDVwL-AXoMf6T-1" vertex="1">
          <mxGeometry x="4675" y="865" width="350" height="290" as="geometry" />
        </mxCell>
        <mxCell id="s87ekahSDVwL-AXoMf6T-266" value="Raw&lt;br&gt;Images" style="strokeWidth=2;html=1;shape=mxgraph.flowchart.multi-document;whiteSpace=wrap;fontFamily=Verdana;fontSize=40;fontColor=#ffffff;fillColor=#a20025;strokeColor=#6F0000;fontStyle=1" parent="s87ekahSDVwL-AXoMf6T-1" vertex="1">
          <mxGeometry x="1215" y="-850" width="270" height="240" as="geometry" />
        </mxCell>
        <mxCell id="s87ekahSDVwL-AXoMf6T-231" style="edgeStyle=orthogonalEdgeStyle;rounded=0;orthogonalLoop=1;jettySize=auto;html=1;dashed=1;fontFamily=Verdana;fontSize=20;fontColor=#000000;strokeWidth=10;fillColor=#1ba1e2;strokeColor=#006EAF;jumpSize=33;jumpStyle=arc;dashPattern=1 1;" parent="s87ekahSDVwL-AXoMf6T-1" source="s87ekahSDVwL-AXoMf6T-233" target="s87ekahSDVwL-AXoMf6T-234" edge="1">
          <mxGeometry relative="1" as="geometry" />
        </mxCell>
        <mxCell id="qlygkCRCWRt0rYqdv92X-3" value="Text" style="text;html=1;strokeColor=none;fillColor=none;align=center;verticalAlign=middle;whiteSpace=wrap;rounded=0;fontSize=20;" vertex="1" parent="s87ekahSDVwL-AXoMf6T-1">
          <mxGeometry x="700" y="-290" width="40" height="20" as="geometry" />
        </mxCell>
      </root>
    </mxGraphModel>
  </diagram>
</mxfile>
